<mxfile host="65bd71144e">
    <diagram id="HyTrtvHLlLuqzmN0MeTq" name="Page-1">
        <mxGraphModel dx="941" dy="1489" grid="1" gridSize="10" guides="1" tooltips="1" connect="1" arrows="1" fold="1" page="1" pageScale="1" pageWidth="827" pageHeight="1169" math="0" shadow="0">
            <root>
                <mxCell id="0"/>
                <mxCell id="1" parent="0"/>
                <mxCell id="21" style="edgeStyle=none;html=1;exitX=0.5;exitY=1;exitDx=0;exitDy=0;entryX=0.5;entryY=0;entryDx=0;entryDy=0;" edge="1" parent="1" source="2" target="3">
                    <mxGeometry relative="1" as="geometry"/>
                </mxCell>
                <mxCell id="23" style="edgeStyle=none;html=1;exitX=0;exitY=0.5;exitDx=0;exitDy=0;entryX=1;entryY=0.5;entryDx=0;entryDy=0;" edge="1" parent="1" source="2" target="7">
                    <mxGeometry relative="1" as="geometry"/>
                </mxCell>
                <mxCell id="2" value="&lt;div style=&quot;color: rgb(171, 178, 191); background-color: rgb(35, 39, 46); font-family: Consolas, &amp;quot;Courier New&amp;quot;, monospace; font-weight: normal; font-size: 14px; line-height: 19px;&quot;&gt;&lt;div&gt;&lt;div style=&quot;line-height: 19px;&quot;&gt;&lt;span style=&quot;color: #c678dd;&quot;&gt;static&lt;/span&gt; &lt;span style=&quot;color: #c678dd;&quot;&gt;struct&lt;/span&gt; lock console_lock;&lt;/div&gt;&lt;/div&gt;&lt;div&gt;&lt;span style=&quot;color: #c678dd;&quot;&gt;void&lt;/span&gt;&lt;span style=&quot;color: #abb2bf;&quot;&gt; &lt;/span&gt;&lt;span style=&quot;color: #61afef;&quot;&gt;init_all&lt;/span&gt;&lt;span style=&quot;color: #abb2bf;&quot;&gt;() {&lt;/span&gt;&lt;/div&gt;&lt;div&gt;&lt;span style=&quot;color: #abb2bf;&quot;&gt;&amp;nbsp; &amp;nbsp;&lt;/span&gt;&lt;span style=&quot;color: #61afef;&quot;&gt;console_init&lt;/span&gt;&lt;span style=&quot;color: #abb2bf;&quot;&gt;();&lt;/span&gt;&lt;/div&gt;&lt;div&gt;&lt;span style=&quot;color: #abb2bf;&quot;&gt;}&lt;/span&gt;&lt;/div&gt;&lt;/div&gt;" style="text;whiteSpace=wrap;html=1;" parent="1" vertex="1">
                    <mxGeometry x="468.5" y="4" width="251" height="80" as="geometry"/>
                </mxCell>
                <mxCell id="26" style="edgeStyle=none;html=1;exitX=0.5;exitY=1;exitDx=0;exitDy=0;entryX=0.5;entryY=0;entryDx=0;entryDy=0;" edge="1" parent="1" source="3" target="4">
                    <mxGeometry relative="1" as="geometry"/>
                </mxCell>
                <mxCell id="3" value="&lt;div style=&quot;color: rgb(171, 178, 191); background-color: rgb(35, 39, 46); font-family: Consolas, &amp;quot;Courier New&amp;quot;, monospace; font-weight: normal; font-size: 14px; line-height: 19px;&quot;&gt;&lt;div&gt;&lt;span style=&quot;color: #c678dd;&quot;&gt;void&lt;/span&gt;&lt;span style=&quot;color: #abb2bf;&quot;&gt; &lt;/span&gt;&lt;span style=&quot;color: #61afef;&quot;&gt;console_init&lt;/span&gt;&lt;span style=&quot;color: #abb2bf;&quot;&gt;() {&lt;/span&gt;&lt;/div&gt;&lt;div&gt;&lt;span style=&quot;color: #abb2bf;&quot;&gt;&amp;nbsp; &amp;nbsp; &lt;/span&gt;&lt;span style=&quot;color: #61afef;&quot;&gt;lock_init&lt;/span&gt;&lt;span style=&quot;color: #abb2bf;&quot;&gt;(&lt;/span&gt;&lt;span style=&quot;color: #c678dd;&quot;&gt;&amp;amp;&lt;/span&gt;&lt;span style=&quot;color: #abb2bf;&quot;&gt;console_lock);&lt;/span&gt;&lt;/div&gt;&lt;div&gt;&lt;span style=&quot;color: #abb2bf;&quot;&gt;}&lt;/span&gt;&lt;/div&gt;&lt;/div&gt;" style="text;whiteSpace=wrap;html=1;" parent="1" vertex="1">
                    <mxGeometry x="479" y="134" width="230" height="60" as="geometry"/>
                </mxCell>
                <mxCell id="27" style="edgeStyle=none;html=1;exitX=0.5;exitY=1;exitDx=0;exitDy=0;" edge="1" parent="1" source="4" target="5">
                    <mxGeometry relative="1" as="geometry"/>
                </mxCell>
                <mxCell id="4" value="&lt;div style=&quot;color: rgb(171, 178, 191); background-color: rgb(35, 39, 46); font-family: Consolas, &amp;quot;Courier New&amp;quot;, monospace; font-weight: normal; font-size: 14px; line-height: 19px;&quot;&gt;&lt;div&gt;&lt;span style=&quot;color: #c678dd;&quot;&gt;void&lt;/span&gt;&lt;span style=&quot;color: #abb2bf;&quot;&gt; &lt;/span&gt;&lt;span style=&quot;color: #61afef;&quot;&gt;lock_init&lt;/span&gt;&lt;span style=&quot;color: #abb2bf;&quot;&gt;(&lt;/span&gt;&lt;span style=&quot;color: #c678dd;&quot;&gt;struct&lt;/span&gt;&lt;span style=&quot;color: #e06c75;&quot;&gt; lock&lt;/span&gt;&lt;span style=&quot;color: #c678dd;&quot;&gt;*&lt;/span&gt;&lt;span style=&quot;color: #e06c75;&quot;&gt; plock&lt;/span&gt;&lt;span style=&quot;color: #abb2bf;&quot;&gt;) {&lt;/span&gt;&lt;/div&gt;&lt;div&gt;&lt;span style=&quot;color: #abb2bf;&quot;&gt;&amp;nbsp; &amp;nbsp; &lt;/span&gt;&lt;span style=&quot;color: #e5c07b;&quot;&gt;plock&lt;/span&gt;&lt;span style=&quot;color: #abb2bf;&quot;&gt;-&amp;gt;&lt;/span&gt;&lt;span style=&quot;color: #e06c75;&quot;&gt;holder&lt;/span&gt;&lt;span style=&quot;color: #abb2bf;&quot;&gt; &lt;/span&gt;&lt;span style=&quot;color: #c678dd;&quot;&gt;=&lt;/span&gt;&lt;span style=&quot;color: #abb2bf;&quot;&gt; &lt;/span&gt;&lt;span style=&quot;color: #d19a66;&quot;&gt;NULL&lt;/span&gt;&lt;span style=&quot;color: #abb2bf;&quot;&gt;;&lt;/span&gt;&lt;/div&gt;&lt;div&gt;&lt;span style=&quot;color: #abb2bf;&quot;&gt;&amp;nbsp; &amp;nbsp; &lt;/span&gt;&lt;span style=&quot;color: #e5c07b;&quot;&gt;plock&lt;/span&gt;&lt;span style=&quot;color: #abb2bf;&quot;&gt;-&amp;gt;&lt;/span&gt;&lt;span style=&quot;color: #e06c75;&quot;&gt;holder_repeat_nr&lt;/span&gt;&lt;span style=&quot;color: #abb2bf;&quot;&gt; &lt;/span&gt;&lt;span style=&quot;color: #c678dd;&quot;&gt;=&lt;/span&gt;&lt;span style=&quot;color: #abb2bf;&quot;&gt; &lt;/span&gt;&lt;span style=&quot;color: #d19a66;&quot;&gt;0&lt;/span&gt;&lt;span style=&quot;color: #abb2bf;&quot;&gt;;&lt;/span&gt;&lt;/div&gt;&lt;div&gt;&lt;span style=&quot;color: #abb2bf;&quot;&gt;&amp;nbsp; &amp;nbsp; &lt;/span&gt;&lt;span style=&quot;color: #61afef;&quot;&gt;sema_init&lt;/span&gt;&lt;span style=&quot;color: #abb2bf;&quot;&gt;(&lt;/span&gt;&lt;span style=&quot;color: #c678dd;&quot;&gt;&amp;amp;&lt;/span&gt;&lt;span style=&quot;color: #e5c07b;&quot;&gt;plock&lt;/span&gt;&lt;span style=&quot;color: #abb2bf;&quot;&gt;-&amp;gt;&lt;/span&gt;&lt;span style=&quot;color: #e06c75;&quot;&gt;semaphore&lt;/span&gt;&lt;span style=&quot;color: #abb2bf;&quot;&gt;, &lt;/span&gt;&lt;span style=&quot;color: #d19a66;&quot;&gt;1&lt;/span&gt;&lt;span style=&quot;color: #abb2bf;&quot;&gt;);&lt;/span&gt;&lt;/div&gt;&lt;div&gt;&lt;span style=&quot;color: #abb2bf;&quot;&gt;}&lt;/span&gt;&lt;/div&gt;&lt;/div&gt;" style="text;whiteSpace=wrap;html=1;" parent="1" vertex="1">
                    <mxGeometry x="449" y="258" width="290" height="100" as="geometry"/>
                </mxCell>
                <mxCell id="28" style="edgeStyle=none;html=1;exitX=0.5;exitY=1;exitDx=0;exitDy=0;" edge="1" parent="1" source="5" target="6">
                    <mxGeometry relative="1" as="geometry"/>
                </mxCell>
                <mxCell id="5" value="&lt;div style=&quot;color: rgb(171, 178, 191); background-color: rgb(35, 39, 46); font-family: Consolas, &amp;quot;Courier New&amp;quot;, monospace; font-weight: normal; font-size: 14px; line-height: 19px;&quot;&gt;&lt;div&gt;&lt;span style=&quot;color: #c678dd;&quot;&gt;void&lt;/span&gt;&lt;span style=&quot;color: #abb2bf;&quot;&gt; &lt;/span&gt;&lt;span style=&quot;color: #61afef;&quot;&gt;sema_init&lt;/span&gt;&lt;span style=&quot;color: #abb2bf;&quot;&gt;(&lt;/span&gt;&lt;span style=&quot;color: #c678dd;&quot;&gt;struct&lt;/span&gt;&lt;span style=&quot;color: #e06c75;&quot;&gt; semaphore&lt;/span&gt;&lt;span style=&quot;color: #c678dd;&quot;&gt;*&lt;/span&gt;&lt;span style=&quot;color: #e06c75;&quot;&gt; psema&lt;/span&gt;&lt;span style=&quot;color: #abb2bf;&quot;&gt;,&lt;/span&gt;&lt;span style=&quot;color: #e06c75;&quot;&gt; &lt;/span&gt;&lt;span style=&quot;color: #c678dd;&quot;&gt;uint8_t&lt;/span&gt;&lt;span style=&quot;color: #e06c75;&quot;&gt; value&lt;/span&gt;&lt;span style=&quot;color: #abb2bf;&quot;&gt;) {&lt;/span&gt;&lt;/div&gt;&lt;div&gt;&lt;span style=&quot;color: #abb2bf;&quot;&gt;&amp;nbsp; &amp;nbsp; &lt;/span&gt;&lt;span style=&quot;color: #e5c07b;&quot;&gt;psema&lt;/span&gt;&lt;span style=&quot;color: #abb2bf;&quot;&gt;-&amp;gt;&lt;/span&gt;&lt;span style=&quot;color: #e06c75;&quot;&gt;value&lt;/span&gt;&lt;span style=&quot;color: #abb2bf;&quot;&gt; &lt;/span&gt;&lt;span style=&quot;color: #c678dd;&quot;&gt;=&lt;/span&gt;&lt;span style=&quot;color: #abb2bf;&quot;&gt; value;&lt;/span&gt;&lt;/div&gt;&lt;div&gt;&lt;span style=&quot;color: #abb2bf;&quot;&gt;&amp;nbsp; &amp;nbsp; &lt;/span&gt;&lt;span style=&quot;color: #61afef;&quot;&gt;list_init&lt;/span&gt;&lt;span style=&quot;color: #abb2bf;&quot;&gt;(&lt;/span&gt;&lt;span style=&quot;color: #c678dd;&quot;&gt;&amp;amp;&lt;/span&gt;&lt;span style=&quot;color: #e5c07b;&quot;&gt;psema&lt;/span&gt;&lt;span style=&quot;color: #abb2bf;&quot;&gt;-&amp;gt;&lt;/span&gt;&lt;span style=&quot;color: #e06c75;&quot;&gt;waiters&lt;/span&gt;&lt;span style=&quot;color: #abb2bf;&quot;&gt;);&lt;/span&gt;&lt;/div&gt;&lt;div&gt;&lt;span style=&quot;color: #abb2bf;&quot;&gt;}&lt;/span&gt;&lt;/div&gt;&lt;/div&gt;" style="text;whiteSpace=wrap;html=1;" parent="1" vertex="1">
                    <mxGeometry x="374" y="410" width="440" height="80" as="geometry"/>
                </mxCell>
                <mxCell id="6" value="&lt;div style=&quot;color: rgb(171, 178, 191); background-color: rgb(35, 39, 46); font-family: Consolas, &amp;quot;Courier New&amp;quot;, monospace; font-weight: normal; font-size: 14px; line-height: 19px;&quot;&gt;&lt;div&gt;&lt;span style=&quot;color: #c678dd;&quot;&gt;void&lt;/span&gt;&lt;span style=&quot;color: #abb2bf;&quot;&gt; &lt;/span&gt;&lt;span style=&quot;color: #61afef;&quot;&gt;list_init&lt;/span&gt;&lt;span style=&quot;color: #abb2bf;&quot;&gt;(&lt;/span&gt;&lt;span style=&quot;color: #c678dd;&quot;&gt;struct&lt;/span&gt;&lt;span style=&quot;color: #e06c75;&quot;&gt; list&lt;/span&gt;&lt;span style=&quot;color: #c678dd;&quot;&gt;*&lt;/span&gt;&lt;span style=&quot;color: #e06c75;&quot;&gt; list&lt;/span&gt;&lt;span style=&quot;color: #abb2bf;&quot;&gt;) {&lt;/span&gt;&lt;/div&gt;&lt;div&gt;&lt;span style=&quot;color: #abb2bf;&quot;&gt;&amp;nbsp; &amp;nbsp; &lt;/span&gt;&lt;span style=&quot;color: #e5c07b;&quot;&gt;list&lt;/span&gt;&lt;span style=&quot;color: #abb2bf;&quot;&gt;-&amp;gt;&lt;/span&gt;&lt;span style=&quot;color: #e5c07b;&quot;&gt;head&lt;/span&gt;&lt;span style=&quot;color: #abb2bf;&quot;&gt;.&lt;/span&gt;&lt;span style=&quot;color: #e06c75;&quot;&gt;prev&lt;/span&gt;&lt;span style=&quot;color: #abb2bf;&quot;&gt; &lt;/span&gt;&lt;span style=&quot;color: #c678dd;&quot;&gt;=&lt;/span&gt;&lt;span style=&quot;color: #abb2bf;&quot;&gt; &lt;/span&gt;&lt;span style=&quot;color: #d19a66;&quot;&gt;NULL&lt;/span&gt;&lt;span style=&quot;color: #abb2bf;&quot;&gt;;&lt;/span&gt;&lt;/div&gt;&lt;div&gt;&lt;span style=&quot;color: #abb2bf;&quot;&gt;&amp;nbsp; &amp;nbsp; &lt;/span&gt;&lt;span style=&quot;color: #e5c07b;&quot;&gt;list&lt;/span&gt;&lt;span style=&quot;color: #abb2bf;&quot;&gt;-&amp;gt;&lt;/span&gt;&lt;span style=&quot;color: #e5c07b;&quot;&gt;head&lt;/span&gt;&lt;span style=&quot;color: #abb2bf;&quot;&gt;.&lt;/span&gt;&lt;span style=&quot;color: #e06c75;&quot;&gt;next&lt;/span&gt;&lt;span style=&quot;color: #abb2bf;&quot;&gt; &lt;/span&gt;&lt;span style=&quot;color: #c678dd;&quot;&gt;=&lt;/span&gt;&lt;span style=&quot;color: #abb2bf;&quot;&gt; &lt;/span&gt;&lt;span style=&quot;color: #c678dd;&quot;&gt;&amp;amp;&lt;/span&gt;&lt;span style=&quot;color: #e5c07b;&quot;&gt;list&lt;/span&gt;&lt;span style=&quot;color: #abb2bf;&quot;&gt;-&amp;gt;&lt;/span&gt;&lt;span style=&quot;color: #e06c75;&quot;&gt;tail&lt;/span&gt;&lt;span style=&quot;color: #abb2bf;&quot;&gt;;&lt;/span&gt;&lt;/div&gt;&lt;div&gt;&lt;span style=&quot;color: #abb2bf;&quot;&gt;&amp;nbsp; &amp;nbsp; &lt;/span&gt;&lt;span style=&quot;color: #e5c07b;&quot;&gt;list&lt;/span&gt;&lt;span style=&quot;color: #abb2bf;&quot;&gt;-&amp;gt;&lt;/span&gt;&lt;span style=&quot;color: #e5c07b;&quot;&gt;tail&lt;/span&gt;&lt;span style=&quot;color: #abb2bf;&quot;&gt;.&lt;/span&gt;&lt;span style=&quot;color: #e06c75;&quot;&gt;prev&lt;/span&gt;&lt;span style=&quot;color: #abb2bf;&quot;&gt; &lt;/span&gt;&lt;span style=&quot;color: #c678dd;&quot;&gt;=&lt;/span&gt;&lt;span style=&quot;color: #abb2bf;&quot;&gt; &lt;/span&gt;&lt;span style=&quot;color: #c678dd;&quot;&gt;&amp;amp;&lt;/span&gt;&lt;span style=&quot;color: #e5c07b;&quot;&gt;list&lt;/span&gt;&lt;span style=&quot;color: #abb2bf;&quot;&gt;-&amp;gt;&lt;/span&gt;&lt;span style=&quot;color: #e06c75;&quot;&gt;head&lt;/span&gt;&lt;span style=&quot;color: #abb2bf;&quot;&gt;;&lt;/span&gt;&lt;/div&gt;&lt;div&gt;&lt;span style=&quot;color: #abb2bf;&quot;&gt;&amp;nbsp; &amp;nbsp; &lt;/span&gt;&lt;span style=&quot;color: #e5c07b;&quot;&gt;list&lt;/span&gt;&lt;span style=&quot;color: #abb2bf;&quot;&gt;-&amp;gt;&lt;/span&gt;&lt;span style=&quot;color: #e5c07b;&quot;&gt;tail&lt;/span&gt;&lt;span style=&quot;color: #abb2bf;&quot;&gt;.&lt;/span&gt;&lt;span style=&quot;color: #e06c75;&quot;&gt;next&lt;/span&gt;&lt;span style=&quot;color: #abb2bf;&quot;&gt; &lt;/span&gt;&lt;span style=&quot;color: #c678dd;&quot;&gt;=&lt;/span&gt;&lt;span style=&quot;color: #abb2bf;&quot;&gt; &lt;/span&gt;&lt;span style=&quot;color: #d19a66;&quot;&gt;NULL&lt;/span&gt;&lt;span style=&quot;color: #abb2bf;&quot;&gt;;&lt;/span&gt;&lt;/div&gt;&lt;div&gt;&lt;span style=&quot;color: #abb2bf;&quot;&gt;}&lt;/span&gt;&lt;/div&gt;&lt;/div&gt;" style="text;whiteSpace=wrap;html=1;" parent="1" vertex="1">
                    <mxGeometry x="456" y="546" width="276" height="120" as="geometry"/>
                </mxCell>
                <mxCell id="24" style="edgeStyle=none;html=1;exitX=0.5;exitY=1;exitDx=0;exitDy=0;entryX=0.5;entryY=0;entryDx=0;entryDy=0;" edge="1" parent="1">
                    <mxGeometry relative="1" as="geometry">
                        <mxPoint x="305" y="124" as="sourcePoint"/>
                        <mxPoint x="305" y="152" as="targetPoint"/>
                    </mxGeometry>
                </mxCell>
                <mxCell id="7" value="&lt;div style=&quot;color: rgb(171, 178, 191); background-color: rgb(35, 39, 46); font-family: Consolas, &amp;quot;Courier New&amp;quot;, monospace; font-weight: normal; font-size: 14px; line-height: 19px;&quot;&gt;&lt;div&gt;&lt;span style=&quot;color: #c678dd;&quot;&gt;struct&lt;/span&gt;&lt;span style=&quot;color: #abb2bf;&quot;&gt; &lt;/span&gt;&lt;span style=&quot;color: #e5c07b;&quot;&gt;lock&lt;/span&gt;&lt;span style=&quot;color: #abb2bf;&quot;&gt; {&lt;/span&gt;&lt;/div&gt;&lt;div&gt;&lt;span style=&quot;color: #abb2bf;&quot;&gt;&amp;nbsp; &amp;nbsp; &lt;/span&gt;&lt;span style=&quot;color: #c678dd;&quot;&gt;struct&lt;/span&gt;&lt;span style=&quot;color: #abb2bf;&quot;&gt; &lt;/span&gt;&lt;span style=&quot;color: #e5c07b;&quot;&gt;task_struct&lt;/span&gt;&lt;span style=&quot;color: #c678dd;&quot;&gt;*&lt;/span&gt;&lt;span style=&quot;color: #abb2bf;&quot;&gt; &lt;/span&gt;&lt;span style=&quot;color: #e5c07b;&quot;&gt;holder&lt;/span&gt;&lt;span style=&quot;color: #abb2bf;&quot;&gt;;&lt;/span&gt;&lt;/div&gt;&lt;div&gt;&lt;span style=&quot;color: #abb2bf;&quot;&gt;&amp;nbsp; &amp;nbsp; &lt;/span&gt;&lt;span style=&quot;color: #c678dd;&quot;&gt;struct&lt;/span&gt;&lt;span style=&quot;color: #abb2bf;&quot;&gt; &lt;/span&gt;&lt;span style=&quot;color: #e5c07b;&quot;&gt;semaphore&lt;/span&gt;&lt;span style=&quot;color: #abb2bf;&quot;&gt; &lt;/span&gt;&lt;span style=&quot;color: #e5c07b;&quot;&gt;semaphore&lt;/span&gt;&lt;span style=&quot;color: #abb2bf;&quot;&gt;;&lt;/span&gt;&lt;/div&gt;&lt;div&gt;&lt;span style=&quot;color: #abb2bf;&quot;&gt;&amp;nbsp; &amp;nbsp; &lt;/span&gt;&lt;span style=&quot;color: #c678dd;&quot;&gt;uint32_t&lt;/span&gt;&lt;span style=&quot;color: #abb2bf;&quot;&gt; holder_repeat_nr;&lt;/span&gt;&lt;/div&gt;&lt;div&gt;&lt;span style=&quot;color: #abb2bf;&quot;&gt;};&lt;/span&gt;&lt;/div&gt;&lt;/div&gt;" style="text;whiteSpace=wrap;html=1;" parent="1" vertex="1">
                    <mxGeometry x="180" y="-6" width="250" height="100" as="geometry"/>
                </mxCell>
                <mxCell id="8" value="&lt;div style=&quot;color: rgb(171, 178, 191); background-color: rgb(35, 39, 46); font-family: Consolas, &amp;quot;Courier New&amp;quot;, monospace; font-weight: normal; font-size: 14px; line-height: 19px;&quot;&gt;&lt;div&gt;&lt;span style=&quot;color: #c678dd;&quot;&gt;struct&lt;/span&gt;&lt;span style=&quot;color: #abb2bf;&quot;&gt; &lt;/span&gt;&lt;span style=&quot;color: #e5c07b;&quot;&gt;semaphore&lt;/span&gt;&lt;span style=&quot;color: #abb2bf;&quot;&gt; {&lt;/span&gt;&lt;/div&gt;&lt;div&gt;&lt;span style=&quot;color: #abb2bf;&quot;&gt;&amp;nbsp; &amp;nbsp; &lt;/span&gt;&lt;span style=&quot;color: #c678dd;&quot;&gt;uint8_t&lt;/span&gt;&lt;span style=&quot;color: #abb2bf;&quot;&gt; value;&lt;/span&gt;&lt;/div&gt;&lt;div&gt;&lt;span style=&quot;color: #abb2bf;&quot;&gt;&amp;nbsp; &amp;nbsp; &lt;/span&gt;&lt;span style=&quot;color: #c678dd;&quot;&gt;struct&lt;/span&gt;&lt;span style=&quot;color: #abb2bf;&quot;&gt; &lt;/span&gt;&lt;span style=&quot;color: #e5c07b;&quot;&gt;list&lt;/span&gt;&lt;span style=&quot;color: #abb2bf;&quot;&gt; &lt;/span&gt;&lt;span style=&quot;color: #e5c07b;&quot;&gt;waiters&lt;/span&gt;&lt;span style=&quot;color: #abb2bf;&quot;&gt;;&lt;/span&gt;&lt;/div&gt;&lt;div&gt;&lt;span style=&quot;color: #abb2bf;&quot;&gt;};&lt;/span&gt;&lt;/div&gt;&lt;/div&gt;" style="text;whiteSpace=wrap;html=1;" parent="1" vertex="1">
                    <mxGeometry x="210" y="122" width="190" height="80" as="geometry"/>
                </mxCell>
                <mxCell id="29" style="edgeStyle=none;html=1;exitX=0;exitY=0.5;exitDx=0;exitDy=0;entryX=1;entryY=0.5;entryDx=0;entryDy=0;" edge="1" parent="1" source="9" target="2">
                    <mxGeometry relative="1" as="geometry"/>
                </mxCell>
                <mxCell id="30" style="edgeStyle=none;html=1;exitX=0.5;exitY=1;exitDx=0;exitDy=0;entryX=0.5;entryY=0;entryDx=0;entryDy=0;" edge="1" parent="1" source="9" target="10">
                    <mxGeometry relative="1" as="geometry"/>
                </mxCell>
                <mxCell id="9" value="&lt;div style=&quot;color: rgb(171, 178, 191); background-color: rgb(35, 39, 46); font-family: Consolas, &amp;quot;Courier New&amp;quot;, monospace; font-weight: normal; font-size: 14px; line-height: 19px;&quot;&gt;&lt;div&gt;&lt;span style=&quot;color: #c678dd;&quot;&gt;int&lt;/span&gt;&lt;span style=&quot;color: #abb2bf;&quot;&gt; &lt;/span&gt;&lt;span style=&quot;color: #61afef;&quot;&gt;main&lt;/span&gt;&lt;span style=&quot;color: #abb2bf;&quot;&gt;(&lt;/span&gt;&lt;span style=&quot;color: #c678dd;&quot;&gt;void&lt;/span&gt;&lt;span style=&quot;color: #abb2bf;&quot;&gt;) {&lt;/span&gt;&lt;/div&gt;&lt;div&gt;&lt;span style=&quot;color: #abb2bf;&quot;&gt;&amp;nbsp; &amp;nbsp; &lt;/span&gt;&lt;span style=&quot;color: #c678dd;&quot;&gt;while&lt;/span&gt;&lt;span style=&quot;color: #abb2bf;&quot;&gt;(&lt;/span&gt;&lt;span style=&quot;color: #d19a66;&quot;&gt;1&lt;/span&gt;&lt;span style=&quot;color: #abb2bf;&quot;&gt;) {&lt;/span&gt;&lt;/div&gt;&lt;div&gt;&lt;span style=&quot;color: #abb2bf;&quot;&gt;&amp;nbsp; &amp;nbsp; &amp;nbsp; &amp;nbsp; &lt;/span&gt;&lt;span style=&quot;color: #61afef;&quot;&gt;console_put_str&lt;/span&gt;&lt;span style=&quot;color: #abb2bf;&quot;&gt;(&lt;/span&gt;&lt;span style=&quot;color: #98c379;&quot;&gt;&quot;Main &quot;&lt;/span&gt;&lt;span style=&quot;color: #abb2bf;&quot;&gt;);&lt;/span&gt;&lt;/div&gt;&lt;div&gt;&lt;span style=&quot;color: #abb2bf;&quot;&gt;&amp;nbsp; &amp;nbsp; };&lt;/span&gt;&lt;/div&gt;&lt;div&gt;&lt;span style=&quot;color: #abb2bf;&quot;&gt;&amp;nbsp; &amp;nbsp; &lt;/span&gt;&lt;span style=&quot;color: #c678dd;&quot;&gt;return&lt;/span&gt;&lt;span style=&quot;color: #abb2bf;&quot;&gt; &lt;/span&gt;&lt;span style=&quot;color: #d19a66;&quot;&gt;0&lt;/span&gt;&lt;span style=&quot;color: #abb2bf;&quot;&gt;;&lt;/span&gt;&lt;/div&gt;&lt;div&gt;&lt;span style=&quot;color: #abb2bf;&quot;&gt;}&lt;/span&gt;&lt;/div&gt;&lt;div&gt;&lt;div style=&quot;line-height: 19px;&quot;&gt;&lt;div&gt;&lt;span style=&quot;color: #c678dd;&quot;&gt;void&lt;/span&gt; &lt;span style=&quot;color: #61afef;&quot;&gt;k_thread_a&lt;/span&gt;(&lt;span style=&quot;color: #c678dd;&quot;&gt;void*&lt;/span&gt;&lt;span style=&quot;color: #e06c75;&quot;&gt; arg&lt;/span&gt;) {&lt;/div&gt;&lt;div&gt;&amp;nbsp; &amp;nbsp; &lt;span style=&quot;color: #c678dd;&quot;&gt;char*&lt;/span&gt; para &lt;span style=&quot;color: #c678dd;&quot;&gt;=&lt;/span&gt; arg;&lt;/div&gt;&lt;div&gt;&amp;nbsp; &amp;nbsp; &lt;span style=&quot;color: #c678dd;&quot;&gt;while&lt;/span&gt;(&lt;span style=&quot;color: #d19a66;&quot;&gt;1&lt;/span&gt;) {&lt;/div&gt;&lt;div&gt;&amp;nbsp; &amp;nbsp; &amp;nbsp; &amp;nbsp; &lt;span style=&quot;color: #61afef;&quot;&gt;console_put_str&lt;/span&gt;(para);&lt;/div&gt;&lt;div&gt;&amp;nbsp; &amp;nbsp; }&lt;/div&gt;&lt;div&gt;}&lt;/div&gt;&lt;br&gt;&lt;div&gt;&lt;span style=&quot;color: #c678dd;&quot;&gt;void&lt;/span&gt; &lt;span style=&quot;color: #61afef;&quot;&gt;k_thread_b&lt;/span&gt;(&lt;span style=&quot;color: #c678dd;&quot;&gt;void*&lt;/span&gt;&lt;span style=&quot;color: #e06c75;&quot;&gt; arg&lt;/span&gt;) {&lt;/div&gt;&lt;div&gt;&amp;nbsp; &amp;nbsp; &lt;span style=&quot;color: #c678dd;&quot;&gt;char*&lt;/span&gt; para &lt;span style=&quot;color: #c678dd;&quot;&gt;=&lt;/span&gt; arg;&lt;/div&gt;&lt;div&gt;&amp;nbsp; &amp;nbsp; &lt;span style=&quot;color: #c678dd;&quot;&gt;while&lt;/span&gt;(&lt;span style=&quot;color: #d19a66;&quot;&gt;1&lt;/span&gt;) {&lt;/div&gt;&lt;div&gt;&amp;nbsp; &amp;nbsp; &amp;nbsp; &amp;nbsp; &lt;span style=&quot;color: #61afef;&quot;&gt;console_put_str&lt;/span&gt;(para);&lt;/div&gt;&lt;div&gt;&amp;nbsp; &amp;nbsp; }&lt;/div&gt;&lt;div&gt;}&lt;/div&gt;&lt;/div&gt;&lt;/div&gt;&lt;/div&gt;" style="text;whiteSpace=wrap;html=1;" parent="1" vertex="1">
                    <mxGeometry x="1530" y="-139" width="260" height="366" as="geometry"/>
                </mxCell>
                <mxCell id="31" style="edgeStyle=none;html=1;exitX=0.5;exitY=1;exitDx=0;exitDy=0;entryX=0.5;entryY=0;entryDx=0;entryDy=0;" edge="1" parent="1" source="10" target="11">
                    <mxGeometry relative="1" as="geometry"/>
                </mxCell>
                <mxCell id="32" style="edgeStyle=none;html=1;exitX=0.5;exitY=1;exitDx=0;exitDy=0;entryX=0.5;entryY=0;entryDx=0;entryDy=0;" edge="1" parent="1" source="10" target="13">
                    <mxGeometry relative="1" as="geometry"/>
                </mxCell>
                <mxCell id="10" value="&lt;div style=&quot;color: rgb(171, 178, 191); background-color: rgb(35, 39, 46); font-family: Consolas, &amp;quot;Courier New&amp;quot;, monospace; font-weight: normal; font-size: 14px; line-height: 19px;&quot;&gt;&lt;div&gt;&lt;span style=&quot;color: #c678dd;&quot;&gt;void&lt;/span&gt;&lt;span style=&quot;color: #abb2bf;&quot;&gt; &lt;/span&gt;&lt;span style=&quot;color: #61afef;&quot;&gt;console_put_str&lt;/span&gt;&lt;span style=&quot;color: #abb2bf;&quot;&gt;(&lt;/span&gt;&lt;span style=&quot;color: #c678dd;&quot;&gt;char*&lt;/span&gt;&lt;span style=&quot;color: #e06c75;&quot;&gt; str&lt;/span&gt;&lt;span style=&quot;color: #abb2bf;&quot;&gt;) {&lt;/span&gt;&lt;/div&gt;&lt;div&gt;&lt;span style=&quot;color: #abb2bf;&quot;&gt;&amp;nbsp; &amp;nbsp; &lt;/span&gt;&lt;span style=&quot;color: #61afef;&quot;&gt;console_acquire&lt;/span&gt;&lt;span style=&quot;color: #abb2bf;&quot;&gt;();&lt;/span&gt;&lt;/div&gt;&lt;div&gt;&lt;span style=&quot;color: #abb2bf;&quot;&gt;&amp;nbsp; &amp;nbsp; &lt;/span&gt;&lt;span style=&quot;color: #61afef;&quot;&gt;put_str&lt;/span&gt;&lt;span style=&quot;color: #abb2bf;&quot;&gt;(str);&lt;/span&gt;&lt;/div&gt;&lt;div&gt;&lt;span style=&quot;color: #abb2bf;&quot;&gt;&amp;nbsp; &amp;nbsp; &lt;/span&gt;&lt;span style=&quot;color: #61afef;&quot;&gt;console_release&lt;/span&gt;&lt;span style=&quot;color: #abb2bf;&quot;&gt;();&lt;/span&gt;&lt;/div&gt;&lt;div&gt;&lt;span style=&quot;color: #abb2bf;&quot;&gt;}&lt;/span&gt;&lt;/div&gt;&lt;/div&gt;" style="text;whiteSpace=wrap;html=1;" parent="1" vertex="1">
                    <mxGeometry x="1530" y="402" width="260" height="100" as="geometry"/>
                </mxCell>
                <mxCell id="33" style="edgeStyle=none;html=1;exitX=0.5;exitY=1;exitDx=0;exitDy=0;entryX=0.5;entryY=0;entryDx=0;entryDy=0;" edge="1" parent="1" source="11" target="14">
                    <mxGeometry relative="1" as="geometry"/>
                </mxCell>
                <mxCell id="11" value="&lt;div style=&quot;color: rgb(171, 178, 191); background-color: rgb(35, 39, 46); font-family: Consolas, &amp;quot;Courier New&amp;quot;, monospace; font-weight: normal; font-size: 14px; line-height: 19px;&quot;&gt;&lt;div&gt;&lt;span style=&quot;color: #c678dd;&quot;&gt;void&lt;/span&gt;&lt;span style=&quot;color: #abb2bf;&quot;&gt; &lt;/span&gt;&lt;span style=&quot;color: #61afef;&quot;&gt;console_acquire&lt;/span&gt;&lt;span style=&quot;color: #abb2bf;&quot;&gt;() {&lt;/span&gt;&lt;/div&gt;&lt;div&gt;&lt;span style=&quot;color: #abb2bf;&quot;&gt;&amp;nbsp; &amp;nbsp; &lt;/span&gt;&lt;span style=&quot;color: #61afef;&quot;&gt;lock_acquire&lt;/span&gt;&lt;span style=&quot;color: #abb2bf;&quot;&gt;(&lt;/span&gt;&lt;span style=&quot;color: #c678dd;&quot;&gt;&amp;amp;&lt;/span&gt;&lt;span style=&quot;color: #abb2bf;&quot;&gt;console_lock);&lt;/span&gt;&lt;/div&gt;&lt;div&gt;&lt;span style=&quot;color: #abb2bf;&quot;&gt;}&lt;/span&gt;&lt;/div&gt;&lt;/div&gt;" style="text;whiteSpace=wrap;html=1;" parent="1" vertex="1">
                    <mxGeometry x="1140" y="520" width="250" height="68" as="geometry"/>
                </mxCell>
                <mxCell id="36" style="edgeStyle=none;html=1;exitX=0.5;exitY=1;exitDx=0;exitDy=0;entryX=0.5;entryY=0;entryDx=0;entryDy=0;" edge="1" parent="1" source="13" target="16">
                    <mxGeometry relative="1" as="geometry"/>
                </mxCell>
                <mxCell id="13" value="&lt;div style=&quot;color: rgb(171, 178, 191); background-color: rgb(35, 39, 46); font-family: Consolas, &amp;quot;Courier New&amp;quot;, monospace; font-weight: normal; font-size: 14px; line-height: 19px;&quot;&gt;&lt;div&gt;&lt;span style=&quot;color: #c678dd;&quot;&gt;void&lt;/span&gt;&lt;span style=&quot;color: #abb2bf;&quot;&gt; &lt;/span&gt;&lt;span style=&quot;color: #61afef;&quot;&gt;console_release&lt;/span&gt;&lt;span style=&quot;color: #abb2bf;&quot;&gt;() {&lt;/span&gt;&lt;/div&gt;&lt;div&gt;&lt;span style=&quot;color: #abb2bf;&quot;&gt;&amp;nbsp; &amp;nbsp; &lt;/span&gt;&lt;span style=&quot;color: #61afef;&quot;&gt;lock_release&lt;/span&gt;&lt;span style=&quot;color: #abb2bf;&quot;&gt;(&lt;/span&gt;&lt;span style=&quot;color: #c678dd;&quot;&gt;&amp;amp;&lt;/span&gt;&lt;span style=&quot;color: #abb2bf;&quot;&gt;console_lock);&lt;/span&gt;&lt;/div&gt;&lt;div&gt;&lt;span style=&quot;color: #abb2bf;&quot;&gt;}&lt;/span&gt;&lt;/div&gt;&lt;/div&gt;" style="text;whiteSpace=wrap;html=1;" parent="1" vertex="1">
                    <mxGeometry x="1970" y="520" width="250" height="68" as="geometry"/>
                </mxCell>
                <mxCell id="34" style="edgeStyle=none;html=1;exitX=0.5;exitY=1;exitDx=0;exitDy=0;entryX=0.5;entryY=0;entryDx=0;entryDy=0;" edge="1" parent="1" source="14" target="15">
                    <mxGeometry relative="1" as="geometry"/>
                </mxCell>
                <mxCell id="14" value="&lt;div style=&quot;color: rgb(171, 178, 191); background-color: rgb(35, 39, 46); font-family: Consolas, &amp;quot;Courier New&amp;quot;, monospace; font-weight: normal; font-size: 14px; line-height: 19px;&quot;&gt;&lt;div&gt;&lt;span style=&quot;color: #c678dd;&quot;&gt;void&lt;/span&gt;&lt;span style=&quot;color: #abb2bf;&quot;&gt; &lt;/span&gt;&lt;span style=&quot;color: #61afef;&quot;&gt;lock_acquire&lt;/span&gt;&lt;span style=&quot;color: #abb2bf;&quot;&gt;(&lt;/span&gt;&lt;span style=&quot;color: #c678dd;&quot;&gt;struct&lt;/span&gt;&lt;span style=&quot;color: #e06c75;&quot;&gt; lock&lt;/span&gt;&lt;span style=&quot;color: #c678dd;&quot;&gt;*&lt;/span&gt;&lt;span style=&quot;color: #e06c75;&quot;&gt; plock&lt;/span&gt;&lt;span style=&quot;color: #abb2bf;&quot;&gt;) {&lt;/span&gt;&lt;/div&gt;&lt;div&gt;&lt;span style=&quot;color: #abb2bf;&quot;&gt;&amp;nbsp; &amp;nbsp; &lt;/span&gt;&lt;span style=&quot;color: #c678dd;&quot;&gt;if&lt;/span&gt;&lt;span style=&quot;color: #abb2bf;&quot;&gt;(&lt;/span&gt;&lt;span style=&quot;color: #e5c07b;&quot;&gt;plock&lt;/span&gt;&lt;span style=&quot;color: #abb2bf;&quot;&gt;-&amp;gt;&lt;/span&gt;&lt;span style=&quot;color: #e06c75;&quot;&gt;holder&lt;/span&gt;&lt;span style=&quot;color: #abb2bf;&quot;&gt; &lt;/span&gt;&lt;span style=&quot;color: #c678dd;&quot;&gt;!=&lt;/span&gt;&lt;span style=&quot;color: #abb2bf;&quot;&gt; &lt;/span&gt;&lt;span style=&quot;color: #61afef;&quot;&gt;running_thread&lt;/span&gt;&lt;span style=&quot;color: #abb2bf;&quot;&gt;()) {&lt;/span&gt;&lt;/div&gt;&lt;div&gt;&lt;span style=&quot;color: #abb2bf;&quot;&gt;&amp;nbsp; &amp;nbsp; &amp;nbsp; &amp;nbsp; &lt;/span&gt;&lt;span style=&quot;color: #61afef;&quot;&gt;sema_down&lt;/span&gt;&lt;span style=&quot;color: #abb2bf;&quot;&gt;(&lt;/span&gt;&lt;span style=&quot;color: #c678dd;&quot;&gt;&amp;amp;&lt;/span&gt;&lt;span style=&quot;color: #e5c07b;&quot;&gt;plock&lt;/span&gt;&lt;span style=&quot;color: #abb2bf;&quot;&gt;-&amp;gt;&lt;/span&gt;&lt;span style=&quot;color: #e06c75;&quot;&gt;semaphore&lt;/span&gt;&lt;span style=&quot;color: #abb2bf;&quot;&gt;);&lt;/span&gt;&lt;/div&gt;&lt;div&gt;&lt;span style=&quot;color: #abb2bf;&quot;&gt;&amp;nbsp; &amp;nbsp; &amp;nbsp; &amp;nbsp; &lt;/span&gt;&lt;span style=&quot;color: #e5c07b;&quot;&gt;plock&lt;/span&gt;&lt;span style=&quot;color: #abb2bf;&quot;&gt;-&amp;gt;&lt;/span&gt;&lt;span style=&quot;color: #e06c75;&quot;&gt;holder&lt;/span&gt;&lt;span style=&quot;color: #abb2bf;&quot;&gt; &lt;/span&gt;&lt;span style=&quot;color: #c678dd;&quot;&gt;=&lt;/span&gt;&lt;span style=&quot;color: #abb2bf;&quot;&gt; &lt;/span&gt;&lt;span style=&quot;color: #61afef;&quot;&gt;running_thread&lt;/span&gt;&lt;span style=&quot;color: #abb2bf;&quot;&gt;();&lt;/span&gt;&lt;/div&gt;&lt;div&gt;&lt;span style=&quot;color: #abb2bf;&quot;&gt;&amp;nbsp; &amp;nbsp; &amp;nbsp; &amp;nbsp; &lt;/span&gt;&lt;span style=&quot;color: #61afef;&quot;&gt;ASSERT&lt;/span&gt;&lt;span style=&quot;color: #abb2bf;&quot;&gt;(&lt;/span&gt;&lt;span style=&quot;color: #e5c07b;&quot;&gt;plock&lt;/span&gt;&lt;span style=&quot;color: #abb2bf;&quot;&gt;-&amp;gt;&lt;/span&gt;&lt;span style=&quot;color: #e06c75;&quot;&gt;holder_repeat_nr&lt;/span&gt;&lt;span style=&quot;color: #abb2bf;&quot;&gt; &lt;/span&gt;&lt;span style=&quot;color: #c678dd;&quot;&gt;==&lt;/span&gt;&lt;span style=&quot;color: #abb2bf;&quot;&gt; &lt;/span&gt;&lt;span style=&quot;color: #d19a66;&quot;&gt;0&lt;/span&gt;&lt;span style=&quot;color: #abb2bf;&quot;&gt;);&lt;/span&gt;&lt;/div&gt;&lt;div&gt;&lt;span style=&quot;color: #abb2bf;&quot;&gt;&amp;nbsp; &amp;nbsp; &amp;nbsp; &amp;nbsp; &lt;/span&gt;&lt;span style=&quot;color: #e5c07b;&quot;&gt;plock&lt;/span&gt;&lt;span style=&quot;color: #abb2bf;&quot;&gt;-&amp;gt;&lt;/span&gt;&lt;span style=&quot;color: #e06c75;&quot;&gt;holder_repeat_nr&lt;/span&gt;&lt;span style=&quot;color: #abb2bf;&quot;&gt; &lt;/span&gt;&lt;span style=&quot;color: #c678dd;&quot;&gt;=&lt;/span&gt;&lt;span style=&quot;color: #abb2bf;&quot;&gt; &lt;/span&gt;&lt;span style=&quot;color: #d19a66;&quot;&gt;1&lt;/span&gt;&lt;span style=&quot;color: #abb2bf;&quot;&gt;;&lt;/span&gt;&lt;/div&gt;&lt;div&gt;&lt;span style=&quot;color: #abb2bf;&quot;&gt;&amp;nbsp; &amp;nbsp; }&lt;/span&gt;&lt;/div&gt;&lt;div&gt;&lt;span style=&quot;color: #abb2bf;&quot;&gt;&amp;nbsp; &amp;nbsp; &lt;/span&gt;&lt;span style=&quot;color: #c678dd;&quot;&gt;else&lt;/span&gt;&lt;span style=&quot;color: #abb2bf;&quot;&gt; {&lt;/span&gt;&lt;span style=&quot;color: #7f848e;&quot;&gt; &amp;nbsp; &amp;nbsp;//avoid deadlock&lt;/span&gt;&lt;/div&gt;&lt;div&gt;&lt;span style=&quot;color: #abb2bf;&quot;&gt;&amp;nbsp; &amp;nbsp; &amp;nbsp; &amp;nbsp; &lt;/span&gt;&lt;span style=&quot;color: #e5c07b;&quot;&gt;plock&lt;/span&gt;&lt;span style=&quot;color: #abb2bf;&quot;&gt;-&amp;gt;&lt;/span&gt;&lt;span style=&quot;color: #e06c75;&quot;&gt;holder_repeat_nr&lt;/span&gt;&lt;span style=&quot;color: #c678dd;&quot;&gt;++&lt;/span&gt;&lt;span style=&quot;color: #abb2bf;&quot;&gt;;&lt;/span&gt;&lt;/div&gt;&lt;div&gt;&lt;span style=&quot;color: #abb2bf;&quot;&gt;&amp;nbsp; &amp;nbsp; }&lt;/span&gt;&lt;/div&gt;&lt;div&gt;&lt;span style=&quot;color: #abb2bf;&quot;&gt;}&lt;/span&gt;&lt;/div&gt;&lt;/div&gt;" style="text;whiteSpace=wrap;html=1;" parent="1" vertex="1">
                    <mxGeometry x="1090" y="612.5" width="350" height="220" as="geometry"/>
                </mxCell>
                <mxCell id="39" style="edgeStyle=none;html=1;exitX=0.5;exitY=1;exitDx=0;exitDy=0;entryX=0.5;entryY=0;entryDx=0;entryDy=0;" edge="1" parent="1" source="15" target="17">
                    <mxGeometry relative="1" as="geometry"/>
                </mxCell>
                <mxCell id="15" value="&lt;div style=&quot;background-color: rgb(35, 39, 46); font-family: Consolas, &amp;quot;Courier New&amp;quot;, monospace; font-weight: normal; font-size: 14px; line-height: 19px;&quot;&gt;&lt;div style=&quot;color: rgb(171, 178, 191);&quot;&gt;&lt;span style=&quot;color: #c678dd;&quot;&gt;void&lt;/span&gt;&lt;span style=&quot;color: #abb2bf;&quot;&gt; &lt;/span&gt;&lt;span style=&quot;color: #61afef;&quot;&gt;sema_down&lt;/span&gt;&lt;span style=&quot;color: #abb2bf;&quot;&gt;(&lt;/span&gt;&lt;span style=&quot;color: #c678dd;&quot;&gt;struct&lt;/span&gt;&lt;span style=&quot;color: #e06c75;&quot;&gt; semaphore&lt;/span&gt;&lt;span style=&quot;color: #c678dd;&quot;&gt;*&lt;/span&gt;&lt;span style=&quot;color: #e06c75;&quot;&gt; psema&lt;/span&gt;&lt;span style=&quot;color: #abb2bf;&quot;&gt;) {&lt;/span&gt;&lt;/div&gt;&lt;div style=&quot;color: rgb(171, 178, 191);&quot;&gt;&lt;span style=&quot;color: #abb2bf;&quot;&gt;&amp;nbsp; &amp;nbsp; &lt;/span&gt;&lt;span style=&quot;color: #c678dd;&quot;&gt;enum&lt;/span&gt;&lt;span style=&quot;color: #abb2bf;&quot;&gt; intr_status old_status &lt;/span&gt;&lt;span style=&quot;color: #c678dd;&quot;&gt;=&lt;/span&gt;&lt;span style=&quot;color: #abb2bf;&quot;&gt; &lt;/span&gt;&lt;span style=&quot;color: #61afef;&quot;&gt;intr_disable&lt;/span&gt;&lt;span style=&quot;color: #abb2bf;&quot;&gt;();&lt;/span&gt;&lt;/div&gt;&lt;div style=&quot;&quot;&gt;&lt;span style=&quot;color: rgb(171, 178, 191);&quot;&gt;&amp;nbsp; &amp;nbsp; &lt;/span&gt;&lt;font color=&quot;#c678dd&quot;&gt;while&lt;/font&gt;&lt;span style=&quot;color: rgb(171, 178, 191);&quot;&gt;(&lt;/span&gt;&lt;span style=&quot;color: rgb(229, 192, 123);&quot;&gt;psema&lt;/span&gt;&lt;span style=&quot;color: rgb(171, 178, 191);&quot;&gt;-&amp;gt;&lt;/span&gt;&lt;span style=&quot;color: rgb(224, 108, 117);&quot;&gt;value&lt;/span&gt;&lt;span style=&quot;color: rgb(171, 178, 191);&quot;&gt; &lt;/span&gt;&lt;span style=&quot;color: rgb(198, 120, 221);&quot;&gt;==&lt;/span&gt;&lt;span style=&quot;color: rgb(171, 178, 191);&quot;&gt; &lt;/span&gt;&lt;span style=&quot;color: rgb(209, 154, 102);&quot;&gt;0&lt;/span&gt;&lt;span style=&quot;color: rgb(171, 178, 191);&quot;&gt;) {&lt;/span&gt;&lt;span style=&quot;color: rgb(127, 132, 142);&quot;&gt; &amp;nbsp;//the lock has not be released&lt;/span&gt;&lt;/div&gt;&lt;div style=&quot;color: rgb(171, 178, 191);&quot;&gt;&lt;span style=&quot;color: #abb2bf;&quot;&gt;&amp;nbsp; &amp;nbsp; &amp;nbsp; &amp;nbsp; &lt;/span&gt;&lt;span style=&quot;color: #61afef;&quot;&gt;ASSERT&lt;/span&gt;&lt;span style=&quot;color: #abb2bf;&quot;&gt;(&lt;/span&gt;&lt;span style=&quot;color: #56b6c2;&quot;&gt;!&lt;/span&gt;&lt;span style=&quot;color: #61afef;&quot;&gt;elem_find&lt;/span&gt;&lt;span style=&quot;color: #abb2bf;&quot;&gt;(&lt;/span&gt;&lt;span style=&quot;color: #c678dd;&quot;&gt;&amp;amp;&lt;/span&gt;&lt;span style=&quot;color: #e5c07b;&quot;&gt;psema&lt;/span&gt;&lt;span style=&quot;color: #abb2bf;&quot;&gt;-&amp;gt;&lt;/span&gt;&lt;span style=&quot;color: #e06c75;&quot;&gt;waiters&lt;/span&gt;&lt;span style=&quot;color: #abb2bf;&quot;&gt;, &lt;/span&gt;&lt;span style=&quot;color: #c678dd;&quot;&gt;&amp;amp;&lt;/span&gt;&lt;span style=&quot;color: #61afef;&quot;&gt;running_thread&lt;/span&gt;&lt;span style=&quot;color: #abb2bf;&quot;&gt;()-&amp;gt;&lt;/span&gt;&lt;span style=&quot;color: #e06c75;&quot;&gt;general_tag&lt;/span&gt;&lt;span style=&quot;color: #abb2bf;&quot;&gt;));&lt;/span&gt;&lt;/div&gt;&lt;div style=&quot;color: rgb(171, 178, 191);&quot;&gt;&lt;span style=&quot;color: #abb2bf;&quot;&gt;&amp;nbsp; &amp;nbsp; &amp;nbsp; &amp;nbsp; &lt;/span&gt;&lt;span style=&quot;color: #c678dd;&quot;&gt;if&lt;/span&gt;&lt;span style=&quot;color: #abb2bf;&quot;&gt;(&lt;/span&gt;&lt;span style=&quot;color: #61afef;&quot;&gt;elem_find&lt;/span&gt;&lt;span style=&quot;color: #abb2bf;&quot;&gt;(&lt;/span&gt;&lt;span style=&quot;color: #c678dd;&quot;&gt;&amp;amp;&lt;/span&gt;&lt;span style=&quot;color: #e5c07b;&quot;&gt;psema&lt;/span&gt;&lt;span style=&quot;color: #abb2bf;&quot;&gt;-&amp;gt;&lt;/span&gt;&lt;span style=&quot;color: #e06c75;&quot;&gt;waiters&lt;/span&gt;&lt;span style=&quot;color: #abb2bf;&quot;&gt;, &lt;/span&gt;&lt;span style=&quot;color: #c678dd;&quot;&gt;&amp;amp;&lt;/span&gt;&lt;span style=&quot;color: #61afef;&quot;&gt;running_thread&lt;/span&gt;&lt;span style=&quot;color: #abb2bf;&quot;&gt;()-&amp;gt;&lt;/span&gt;&lt;span style=&quot;color: #e06c75;&quot;&gt;general_tag&lt;/span&gt;&lt;span style=&quot;color: #abb2bf;&quot;&gt;)) {&lt;/span&gt;&lt;/div&gt;&lt;div style=&quot;color: rgb(171, 178, 191);&quot;&gt;&lt;span style=&quot;color: #abb2bf;&quot;&gt;&amp;nbsp; &amp;nbsp; &amp;nbsp; &amp;nbsp; &amp;nbsp; &amp;nbsp; &lt;/span&gt;&lt;span style=&quot;color: #61afef;&quot;&gt;PANIC&lt;/span&gt;&lt;span style=&quot;color: #abb2bf;&quot;&gt;(&lt;/span&gt;&lt;span style=&quot;color: #98c379;&quot;&gt;&quot;sema_down: thread blocked has been in waiters_list&lt;/span&gt;&lt;span style=&quot;color: #56b6c2;&quot;&gt;\n&lt;/span&gt;&lt;span style=&quot;color: #98c379;&quot;&gt;&quot;&lt;/span&gt;&lt;span style=&quot;color: #abb2bf;&quot;&gt;);&lt;/span&gt;&lt;/div&gt;&lt;div style=&quot;color: rgb(171, 178, 191);&quot;&gt;&lt;span style=&quot;color: #abb2bf;&quot;&gt;&amp;nbsp; &amp;nbsp; &amp;nbsp; &amp;nbsp; }&lt;/span&gt;&lt;/div&gt;&lt;div style=&quot;color: rgb(171, 178, 191);&quot;&gt;&lt;span style=&quot;color: #abb2bf;&quot;&gt;&amp;nbsp; &amp;nbsp; &amp;nbsp; &amp;nbsp; &lt;/span&gt;&lt;span style=&quot;color: #61afef;&quot;&gt;list_append&lt;/span&gt;&lt;span style=&quot;color: #abb2bf;&quot;&gt;(&lt;/span&gt;&lt;span style=&quot;color: #c678dd;&quot;&gt;&amp;amp;&lt;/span&gt;&lt;span style=&quot;color: #e5c07b;&quot;&gt;psema&lt;/span&gt;&lt;span style=&quot;color: #abb2bf;&quot;&gt;-&amp;gt;&lt;/span&gt;&lt;span style=&quot;color: #e06c75;&quot;&gt;waiters&lt;/span&gt;&lt;span style=&quot;color: #abb2bf;&quot;&gt;, &lt;/span&gt;&lt;span style=&quot;color: #c678dd;&quot;&gt;&amp;amp;&lt;/span&gt;&lt;span style=&quot;color: #61afef;&quot;&gt;running_thread&lt;/span&gt;&lt;span style=&quot;color: #abb2bf;&quot;&gt;()-&amp;gt;&lt;/span&gt;&lt;span style=&quot;color: #e06c75;&quot;&gt;general_tag&lt;/span&gt;&lt;span style=&quot;color: #abb2bf;&quot;&gt;);&lt;/span&gt;&lt;/div&gt;&lt;div style=&quot;color: rgb(171, 178, 191);&quot;&gt;&lt;span style=&quot;color: #abb2bf;&quot;&gt;&amp;nbsp; &amp;nbsp; &amp;nbsp; &amp;nbsp; &lt;/span&gt;&lt;span style=&quot;color: #61afef;&quot;&gt;thread_block&lt;/span&gt;&lt;span style=&quot;color: #abb2bf;&quot;&gt;(TASK_BLOCKED);&lt;/span&gt;&lt;/div&gt;&lt;div style=&quot;color: rgb(171, 178, 191);&quot;&gt;&lt;span style=&quot;color: #abb2bf;&quot;&gt;&amp;nbsp; &amp;nbsp; }&lt;/span&gt;&lt;/div&gt;&lt;div style=&quot;color: rgb(171, 178, 191);&quot;&gt;&lt;span style=&quot;color: #abb2bf;&quot;&gt;&amp;nbsp; &amp;nbsp; &lt;/span&gt;&lt;span style=&quot;color: #e5c07b;&quot;&gt;psema&lt;/span&gt;&lt;span style=&quot;color: #abb2bf;&quot;&gt;-&amp;gt;&lt;/span&gt;&lt;span style=&quot;color: #e06c75;&quot;&gt;value&lt;/span&gt;&lt;span style=&quot;color: #c678dd;&quot;&gt;--&lt;/span&gt;&lt;span style=&quot;color: #abb2bf;&quot;&gt;;&lt;/span&gt;&lt;span style=&quot;color: #7f848e;&quot;&gt; &amp;nbsp;//the lock has be released&lt;/span&gt;&lt;/div&gt;&lt;div style=&quot;color: rgb(171, 178, 191);&quot;&gt;&lt;span style=&quot;color: #abb2bf;&quot;&gt;&amp;nbsp; &amp;nbsp; &lt;/span&gt;&lt;span style=&quot;color: #61afef;&quot;&gt;ASSERT&lt;/span&gt;&lt;span style=&quot;color: #abb2bf;&quot;&gt;(&lt;/span&gt;&lt;span style=&quot;color: #e5c07b;&quot;&gt;psema&lt;/span&gt;&lt;span style=&quot;color: #abb2bf;&quot;&gt;-&amp;gt;&lt;/span&gt;&lt;span style=&quot;color: #e06c75;&quot;&gt;value&lt;/span&gt;&lt;span style=&quot;color: #abb2bf;&quot;&gt; &lt;/span&gt;&lt;span style=&quot;color: #c678dd;&quot;&gt;==&lt;/span&gt;&lt;span style=&quot;color: #abb2bf;&quot;&gt; &lt;/span&gt;&lt;span style=&quot;color: #d19a66;&quot;&gt;0&lt;/span&gt;&lt;span style=&quot;color: #abb2bf;&quot;&gt;);&lt;/span&gt;&lt;/div&gt;&lt;div style=&quot;color: rgb(171, 178, 191);&quot;&gt;&lt;span style=&quot;color: #abb2bf;&quot;&gt;&amp;nbsp; &amp;nbsp; &lt;/span&gt;&lt;/div&gt;&lt;div style=&quot;color: rgb(171, 178, 191);&quot;&gt;&lt;span style=&quot;color: #abb2bf;&quot;&gt;&amp;nbsp; &amp;nbsp; &lt;/span&gt;&lt;span style=&quot;color: #61afef;&quot;&gt;intr_set_status&lt;/span&gt;&lt;span style=&quot;color: #abb2bf;&quot;&gt;(old_status);&lt;/span&gt;&lt;/div&gt;&lt;div style=&quot;color: rgb(171, 178, 191);&quot;&gt;&lt;span style=&quot;color: #abb2bf;&quot;&gt;}&lt;/span&gt;&lt;/div&gt;&lt;/div&gt;" style="text;whiteSpace=wrap;html=1;" parent="1" vertex="1">
                    <mxGeometry x="970" y="868" width="590" height="290" as="geometry"/>
                </mxCell>
                <mxCell id="38" style="edgeStyle=none;html=1;exitX=0.5;exitY=1;exitDx=0;exitDy=0;entryX=0.5;entryY=0;entryDx=0;entryDy=0;" edge="1" parent="1" source="16" target="18">
                    <mxGeometry relative="1" as="geometry"/>
                </mxCell>
                <mxCell id="16" value="&lt;div style=&quot;color: rgb(171, 178, 191); background-color: rgb(35, 39, 46); font-family: Consolas, &amp;quot;Courier New&amp;quot;, monospace; font-weight: normal; font-size: 14px; line-height: 19px;&quot;&gt;&lt;div&gt;&lt;span style=&quot;color: #c678dd;&quot;&gt;void&lt;/span&gt;&lt;span style=&quot;color: #abb2bf;&quot;&gt; &lt;/span&gt;&lt;span style=&quot;color: #61afef;&quot;&gt;lock_release&lt;/span&gt;&lt;span style=&quot;color: #abb2bf;&quot;&gt;(&lt;/span&gt;&lt;span style=&quot;color: #c678dd;&quot;&gt;struct&lt;/span&gt;&lt;span style=&quot;color: #e06c75;&quot;&gt; lock&lt;/span&gt;&lt;span style=&quot;color: #c678dd;&quot;&gt;*&lt;/span&gt;&lt;span style=&quot;color: #e06c75;&quot;&gt; plock&lt;/span&gt;&lt;span style=&quot;color: #abb2bf;&quot;&gt;) {&lt;/span&gt;&lt;/div&gt;&lt;div&gt;&lt;span style=&quot;color: #abb2bf;&quot;&gt;&amp;nbsp; &amp;nbsp; &lt;/span&gt;&lt;span style=&quot;color: #61afef;&quot;&gt;ASSERT&lt;/span&gt;&lt;span style=&quot;color: #abb2bf;&quot;&gt;(&lt;/span&gt;&lt;span style=&quot;color: #e5c07b;&quot;&gt;plock&lt;/span&gt;&lt;span style=&quot;color: #abb2bf;&quot;&gt;-&amp;gt;&lt;/span&gt;&lt;span style=&quot;color: #e06c75;&quot;&gt;holder&lt;/span&gt;&lt;span style=&quot;color: #abb2bf;&quot;&gt; &lt;/span&gt;&lt;span style=&quot;color: #c678dd;&quot;&gt;==&lt;/span&gt;&lt;span style=&quot;color: #abb2bf;&quot;&gt; &lt;/span&gt;&lt;span style=&quot;color: #61afef;&quot;&gt;running_thread&lt;/span&gt;&lt;span style=&quot;color: #abb2bf;&quot;&gt;());&lt;/span&gt;&lt;/div&gt;&lt;div&gt;&lt;span style=&quot;color: #abb2bf;&quot;&gt;&amp;nbsp; &amp;nbsp; &lt;/span&gt;&lt;span style=&quot;color: #c678dd;&quot;&gt;if&lt;/span&gt;&lt;span style=&quot;color: #abb2bf;&quot;&gt;(&lt;/span&gt;&lt;span style=&quot;color: #e5c07b;&quot;&gt;plock&lt;/span&gt;&lt;span style=&quot;color: #abb2bf;&quot;&gt;-&amp;gt;&lt;/span&gt;&lt;span style=&quot;color: #e06c75;&quot;&gt;holder_repeat_nr&lt;/span&gt;&lt;span style=&quot;color: #abb2bf;&quot;&gt; &lt;/span&gt;&lt;span style=&quot;color: #c678dd;&quot;&gt;&amp;gt;&lt;/span&gt;&lt;span style=&quot;color: #abb2bf;&quot;&gt; &lt;/span&gt;&lt;span style=&quot;color: #d19a66;&quot;&gt;1&lt;/span&gt;&lt;span style=&quot;color: #abb2bf;&quot;&gt;) {&lt;/span&gt;&lt;/div&gt;&lt;div&gt;&lt;span style=&quot;color: #abb2bf;&quot;&gt;&amp;nbsp; &amp;nbsp; &amp;nbsp; &amp;nbsp; &lt;/span&gt;&lt;span style=&quot;color: #e5c07b;&quot;&gt;plock&lt;/span&gt;&lt;span style=&quot;color: #abb2bf;&quot;&gt;-&amp;gt;&lt;/span&gt;&lt;span style=&quot;color: #e06c75;&quot;&gt;holder_repeat_nr&lt;/span&gt;&lt;span style=&quot;color: #c678dd;&quot;&gt;--&lt;/span&gt;&lt;span style=&quot;color: #abb2bf;&quot;&gt;;&lt;/span&gt;&lt;/div&gt;&lt;div&gt;&lt;span style=&quot;color: #abb2bf;&quot;&gt;&amp;nbsp; &amp;nbsp; &amp;nbsp; &amp;nbsp; &lt;/span&gt;&lt;span style=&quot;color: #c678dd;&quot;&gt;return&lt;/span&gt;&lt;span style=&quot;color: #abb2bf;&quot;&gt;;&lt;/span&gt;&lt;/div&gt;&lt;div&gt;&lt;span style=&quot;color: #abb2bf;&quot;&gt;&amp;nbsp; &amp;nbsp; }&lt;/span&gt;&lt;/div&gt;&lt;div&gt;&lt;span style=&quot;color: #abb2bf;&quot;&gt;&amp;nbsp; &amp;nbsp; &lt;/span&gt;&lt;span style=&quot;color: #61afef;&quot;&gt;ASSERT&lt;/span&gt;&lt;span style=&quot;color: #abb2bf;&quot;&gt;(&lt;/span&gt;&lt;span style=&quot;color: #e5c07b;&quot;&gt;plock&lt;/span&gt;&lt;span style=&quot;color: #abb2bf;&quot;&gt;-&amp;gt;&lt;/span&gt;&lt;span style=&quot;color: #e06c75;&quot;&gt;holder_repeat_nr&lt;/span&gt;&lt;span style=&quot;color: #abb2bf;&quot;&gt; &lt;/span&gt;&lt;span style=&quot;color: #c678dd;&quot;&gt;==&lt;/span&gt;&lt;span style=&quot;color: #abb2bf;&quot;&gt; &lt;/span&gt;&lt;span style=&quot;color: #d19a66;&quot;&gt;1&lt;/span&gt;&lt;span style=&quot;color: #abb2bf;&quot;&gt;);&lt;/span&gt;&lt;/div&gt;&lt;br&gt;&lt;div&gt;&lt;span style=&quot;color: #abb2bf;&quot;&gt;&amp;nbsp; &amp;nbsp; &lt;/span&gt;&lt;span style=&quot;color: #e5c07b;&quot;&gt;plock&lt;/span&gt;&lt;span style=&quot;color: #abb2bf;&quot;&gt;-&amp;gt;&lt;/span&gt;&lt;span style=&quot;color: #e06c75;&quot;&gt;holder&lt;/span&gt;&lt;span style=&quot;color: #abb2bf;&quot;&gt; &lt;/span&gt;&lt;span style=&quot;color: #c678dd;&quot;&gt;=&lt;/span&gt;&lt;span style=&quot;color: #abb2bf;&quot;&gt; &lt;/span&gt;&lt;span style=&quot;color: #d19a66;&quot;&gt;NULL&lt;/span&gt;&lt;span style=&quot;color: #abb2bf;&quot;&gt;;&lt;/span&gt;&lt;/div&gt;&lt;div&gt;&lt;span style=&quot;color: #abb2bf;&quot;&gt;&amp;nbsp; &amp;nbsp; &lt;/span&gt;&lt;span style=&quot;color: #e5c07b;&quot;&gt;plock&lt;/span&gt;&lt;span style=&quot;color: #abb2bf;&quot;&gt;-&amp;gt;&lt;/span&gt;&lt;span style=&quot;color: #e06c75;&quot;&gt;holder_repeat_nr&lt;/span&gt;&lt;span style=&quot;color: #abb2bf;&quot;&gt; &lt;/span&gt;&lt;span style=&quot;color: #c678dd;&quot;&gt;=&lt;/span&gt;&lt;span style=&quot;color: #abb2bf;&quot;&gt; &lt;/span&gt;&lt;span style=&quot;color: #d19a66;&quot;&gt;0&lt;/span&gt;&lt;span style=&quot;color: #abb2bf;&quot;&gt;;&lt;/span&gt;&lt;/div&gt;&lt;div&gt;&lt;span style=&quot;color: #abb2bf;&quot;&gt;&amp;nbsp; &amp;nbsp; &lt;/span&gt;&lt;span style=&quot;color: #61afef;&quot;&gt;sema_up&lt;/span&gt;&lt;span style=&quot;color: #abb2bf;&quot;&gt;(&lt;/span&gt;&lt;span style=&quot;color: #c678dd;&quot;&gt;&amp;amp;&lt;/span&gt;&lt;span style=&quot;color: #e5c07b;&quot;&gt;plock&lt;/span&gt;&lt;span style=&quot;color: #abb2bf;&quot;&gt;-&amp;gt;&lt;/span&gt;&lt;span style=&quot;color: #e06c75;&quot;&gt;semaphore&lt;/span&gt;&lt;span style=&quot;color: #abb2bf;&quot;&gt;);&lt;/span&gt;&lt;/div&gt;&lt;div&gt;&lt;span style=&quot;color: #abb2bf;&quot;&gt;}&lt;/span&gt;&lt;/div&gt;&lt;/div&gt;" style="text;whiteSpace=wrap;html=1;" parent="1" vertex="1">
                    <mxGeometry x="1915" y="612.5" width="360" height="238" as="geometry"/>
                </mxCell>
                <mxCell id="40" style="edgeStyle=none;html=1;exitX=0.5;exitY=1;exitDx=0;exitDy=0;entryX=0.5;entryY=0;entryDx=0;entryDy=0;" edge="1" parent="1" source="17" target="20">
                    <mxGeometry relative="1" as="geometry"/>
                </mxCell>
                <mxCell id="17" value="&lt;div style=&quot;color: rgb(171, 178, 191); background-color: rgb(35, 39, 46); font-family: Consolas, &amp;quot;Courier New&amp;quot;, monospace; font-weight: normal; font-size: 14px; line-height: 19px;&quot;&gt;&lt;div&gt;&lt;span style=&quot;color: #c678dd;&quot;&gt;void&lt;/span&gt;&lt;span style=&quot;color: #abb2bf;&quot;&gt; &lt;/span&gt;&lt;span style=&quot;color: #61afef;&quot;&gt;thread_block&lt;/span&gt;&lt;span style=&quot;color: #abb2bf;&quot;&gt;(&lt;/span&gt;&lt;span style=&quot;color: #c678dd;&quot;&gt;enum&lt;/span&gt;&lt;span style=&quot;color: #e06c75;&quot;&gt; task_status stat&lt;/span&gt;&lt;span style=&quot;color: #abb2bf;&quot;&gt;) {&lt;/span&gt;&lt;/div&gt;&lt;div&gt;&lt;span style=&quot;color: #abb2bf;&quot;&gt;&amp;nbsp; &amp;nbsp; &lt;/span&gt;&lt;span style=&quot;color: #61afef;&quot;&gt;ASSERT&lt;/span&gt;&lt;span style=&quot;color: #abb2bf;&quot;&gt;(((stat &lt;/span&gt;&lt;span style=&quot;color: #c678dd;&quot;&gt;==&lt;/span&gt;&lt;span style=&quot;color: #abb2bf;&quot;&gt; TASK_BLOCKED) &lt;/span&gt;&lt;span style=&quot;color: #56b6c2;&quot;&gt;||&lt;/span&gt;&lt;span style=&quot;color: #abb2bf;&quot;&gt; (stat &lt;/span&gt;&lt;span style=&quot;color: #c678dd;&quot;&gt;==&lt;/span&gt;&lt;span style=&quot;color: #abb2bf;&quot;&gt; TASK_WAITING) &lt;/span&gt;&lt;span style=&quot;color: #56b6c2;&quot;&gt;||&lt;/span&gt;&lt;span style=&quot;color: #abb2bf;&quot;&gt; (stat &lt;/span&gt;&lt;span style=&quot;color: #c678dd;&quot;&gt;==&lt;/span&gt;&lt;span style=&quot;color: #abb2bf;&quot;&gt; TASK_HANGING)));&lt;/span&gt;&lt;/div&gt;&lt;div&gt;&lt;span style=&quot;color: #abb2bf;&quot;&gt;&amp;nbsp; &amp;nbsp; &lt;/span&gt;&lt;span style=&quot;color: #c678dd;&quot;&gt;enum&lt;/span&gt;&lt;span style=&quot;color: #abb2bf;&quot;&gt; intr_status old_status &lt;/span&gt;&lt;span style=&quot;color: #c678dd;&quot;&gt;=&lt;/span&gt;&lt;span style=&quot;color: #abb2bf;&quot;&gt; &lt;/span&gt;&lt;span style=&quot;color: #61afef;&quot;&gt;intr_disable&lt;/span&gt;&lt;span style=&quot;color: #abb2bf;&quot;&gt;();&lt;/span&gt;&lt;/div&gt;&lt;div&gt;&lt;span style=&quot;color: #abb2bf;&quot;&gt;&amp;nbsp; &amp;nbsp; &lt;/span&gt;&lt;span style=&quot;color: #c678dd;&quot;&gt;struct&lt;/span&gt;&lt;span style=&quot;color: #abb2bf;&quot;&gt; task_struct&lt;/span&gt;&lt;span style=&quot;color: #c678dd;&quot;&gt;*&lt;/span&gt;&lt;span style=&quot;color: #abb2bf;&quot;&gt; cur_thread &lt;/span&gt;&lt;span style=&quot;color: #c678dd;&quot;&gt;=&lt;/span&gt;&lt;span style=&quot;color: #abb2bf;&quot;&gt; &lt;/span&gt;&lt;span style=&quot;color: #61afef;&quot;&gt;running_thread&lt;/span&gt;&lt;span style=&quot;color: #abb2bf;&quot;&gt;();&lt;/span&gt;&lt;/div&gt;&lt;div&gt;&lt;span style=&quot;color: #abb2bf;&quot;&gt;&amp;nbsp; &amp;nbsp; &lt;/span&gt;&lt;span style=&quot;color: #e5c07b;&quot;&gt;cur_thread&lt;/span&gt;&lt;span style=&quot;color: #abb2bf;&quot;&gt;-&amp;gt;&lt;/span&gt;&lt;span style=&quot;color: #e06c75;&quot;&gt;status&lt;/span&gt;&lt;span style=&quot;color: #abb2bf;&quot;&gt; &lt;/span&gt;&lt;span style=&quot;color: #c678dd;&quot;&gt;=&lt;/span&gt;&lt;span style=&quot;color: #abb2bf;&quot;&gt; stat;&lt;/span&gt;&lt;span style=&quot;color: #7f848e;&quot;&gt; &amp;nbsp;//change current thread's status.&lt;/span&gt;&lt;/div&gt;&lt;div&gt;&lt;span style=&quot;color: #abb2bf;&quot;&gt;&amp;nbsp; &amp;nbsp; &lt;/span&gt;&lt;span style=&quot;color: #61afef;&quot;&gt;schedule&lt;/span&gt;&lt;span style=&quot;color: #abb2bf;&quot;&gt;();&lt;/span&gt;&lt;span style=&quot;color: #7f848e;&quot;&gt; &amp;nbsp;//replace current thread from CPU.&lt;/span&gt;&lt;/div&gt;&lt;br&gt;&lt;div&gt;&lt;span style=&quot;color: #abb2bf;&quot;&gt;&amp;nbsp; &amp;nbsp; &lt;/span&gt;&lt;span style=&quot;color: #61afef;&quot;&gt;intr_set_status&lt;/span&gt;&lt;span style=&quot;color: #abb2bf;&quot;&gt;(old_status);&lt;/span&gt;&lt;/div&gt;&lt;div&gt;&lt;span style=&quot;color: #abb2bf;&quot;&gt;}&lt;/span&gt;&lt;/div&gt;&lt;/div&gt;" style="text;whiteSpace=wrap;html=1;" parent="1" vertex="1">
                    <mxGeometry x="985" y="1190" width="560" height="200" as="geometry"/>
                </mxCell>
                <mxCell id="41" style="edgeStyle=none;html=1;exitX=0.5;exitY=1;exitDx=0;exitDy=0;entryX=0.5;entryY=0;entryDx=0;entryDy=0;" edge="1" parent="1" source="18" target="19">
                    <mxGeometry relative="1" as="geometry"/>
                </mxCell>
                <mxCell id="18" value="&lt;div style=&quot;color: rgb(171, 178, 191); background-color: rgb(35, 39, 46); font-family: Consolas, &amp;quot;Courier New&amp;quot;, monospace; font-weight: normal; font-size: 14px; line-height: 19px;&quot;&gt;&lt;div&gt;&lt;span style=&quot;color: #c678dd;&quot;&gt;void&lt;/span&gt;&lt;span style=&quot;color: #abb2bf;&quot;&gt; &lt;/span&gt;&lt;span style=&quot;color: #61afef;&quot;&gt;sema_up&lt;/span&gt;&lt;span style=&quot;color: #abb2bf;&quot;&gt;(&lt;/span&gt;&lt;span style=&quot;color: #c678dd;&quot;&gt;struct&lt;/span&gt;&lt;span style=&quot;color: #e06c75;&quot;&gt; semaphore&lt;/span&gt;&lt;span style=&quot;color: #c678dd;&quot;&gt;*&lt;/span&gt;&lt;span style=&quot;color: #e06c75;&quot;&gt; psema&lt;/span&gt;&lt;span style=&quot;color: #abb2bf;&quot;&gt;) {&lt;/span&gt;&lt;/div&gt;&lt;div&gt;&lt;span style=&quot;color: #abb2bf;&quot;&gt;&amp;nbsp; &amp;nbsp; &lt;/span&gt;&lt;span style=&quot;color: #c678dd;&quot;&gt;enum&lt;/span&gt;&lt;span style=&quot;color: #abb2bf;&quot;&gt; intr_status old_status &lt;/span&gt;&lt;span style=&quot;color: #c678dd;&quot;&gt;=&lt;/span&gt;&lt;span style=&quot;color: #abb2bf;&quot;&gt; &lt;/span&gt;&lt;span style=&quot;color: #61afef;&quot;&gt;intr_disable&lt;/span&gt;&lt;span style=&quot;color: #abb2bf;&quot;&gt;();&lt;/span&gt;&lt;/div&gt;&lt;div&gt;&lt;span style=&quot;color: #abb2bf;&quot;&gt;&amp;nbsp; &amp;nbsp; &lt;/span&gt;&lt;span style=&quot;color: #61afef;&quot;&gt;ASSERT&lt;/span&gt;&lt;span style=&quot;color: #abb2bf;&quot;&gt;(&lt;/span&gt;&lt;span style=&quot;color: #e5c07b;&quot;&gt;psema&lt;/span&gt;&lt;span style=&quot;color: #abb2bf;&quot;&gt;-&amp;gt;&lt;/span&gt;&lt;span style=&quot;color: #e06c75;&quot;&gt;value&lt;/span&gt;&lt;span style=&quot;color: #abb2bf;&quot;&gt; &lt;/span&gt;&lt;span style=&quot;color: #c678dd;&quot;&gt;==&lt;/span&gt;&lt;span style=&quot;color: #abb2bf;&quot;&gt; &lt;/span&gt;&lt;span style=&quot;color: #d19a66;&quot;&gt;0&lt;/span&gt;&lt;span style=&quot;color: #abb2bf;&quot;&gt;);&lt;/span&gt;&lt;/div&gt;&lt;div&gt;&lt;span style=&quot;color: #abb2bf;&quot;&gt;&amp;nbsp; &amp;nbsp; &lt;/span&gt;&lt;span style=&quot;color: #c678dd;&quot;&gt;if&lt;/span&gt;&lt;span style=&quot;color: #abb2bf;&quot;&gt;(&lt;/span&gt;&lt;span style=&quot;color: #56b6c2;&quot;&gt;!&lt;/span&gt;&lt;span style=&quot;color: #61afef;&quot;&gt;list_empty&lt;/span&gt;&lt;span style=&quot;color: #abb2bf;&quot;&gt;(&lt;/span&gt;&lt;span style=&quot;color: #c678dd;&quot;&gt;&amp;amp;&lt;/span&gt;&lt;span style=&quot;color: #e5c07b;&quot;&gt;psema&lt;/span&gt;&lt;span style=&quot;color: #abb2bf;&quot;&gt;-&amp;gt;&lt;/span&gt;&lt;span style=&quot;color: #e06c75;&quot;&gt;waiters&lt;/span&gt;&lt;span style=&quot;color: #abb2bf;&quot;&gt;)) {&lt;/span&gt;&lt;/div&gt;&lt;div&gt;&lt;span style=&quot;color: #abb2bf;&quot;&gt;&amp;nbsp; &amp;nbsp; &amp;nbsp; &amp;nbsp; &lt;/span&gt;&lt;span style=&quot;color: #c678dd;&quot;&gt;struct&lt;/span&gt;&lt;span style=&quot;color: #abb2bf;&quot;&gt; task_struct&lt;/span&gt;&lt;span style=&quot;color: #c678dd;&quot;&gt;*&lt;/span&gt;&lt;span style=&quot;color: #abb2bf;&quot;&gt; thread_blocked &lt;/span&gt;&lt;span style=&quot;color: #c678dd;&quot;&gt;=&lt;/span&gt;&lt;span style=&quot;color: #abb2bf;&quot;&gt; &lt;/span&gt;&lt;span style=&quot;color: #61afef;&quot;&gt;elem2entry&lt;/span&gt;&lt;span style=&quot;color: #abb2bf;&quot;&gt;(&lt;/span&gt;&lt;span style=&quot;color: #c678dd;&quot;&gt;struct&lt;/span&gt;&lt;span style=&quot;color: #abb2bf;&quot;&gt; task_struct, general_tag, &lt;/span&gt;&lt;span style=&quot;color: #61afef;&quot;&gt;list_pop&lt;/span&gt;&lt;span style=&quot;color: #abb2bf;&quot;&gt;(&lt;/span&gt;&lt;span style=&quot;color: #c678dd;&quot;&gt;&amp;amp;&lt;/span&gt;&lt;span style=&quot;color: #e5c07b;&quot;&gt;psema&lt;/span&gt;&lt;span style=&quot;color: #abb2bf;&quot;&gt;-&amp;gt;&lt;/span&gt;&lt;span style=&quot;color: #e06c75;&quot;&gt;waiters&lt;/span&gt;&lt;span style=&quot;color: #abb2bf;&quot;&gt;));&lt;/span&gt;&lt;/div&gt;&lt;div&gt;&lt;span style=&quot;color: #abb2bf;&quot;&gt;&amp;nbsp; &amp;nbsp; &amp;nbsp; &amp;nbsp; &lt;/span&gt;&lt;span style=&quot;color: #61afef;&quot;&gt;thread_unblock&lt;/span&gt;&lt;span style=&quot;color: #abb2bf;&quot;&gt;(thread_blocked);&lt;/span&gt;&lt;/div&gt;&lt;div&gt;&lt;span style=&quot;color: #abb2bf;&quot;&gt;&amp;nbsp; &amp;nbsp; }&lt;/span&gt;&lt;/div&gt;&lt;div&gt;&lt;span style=&quot;color: #abb2bf;&quot;&gt;&amp;nbsp; &amp;nbsp; &lt;/span&gt;&lt;span style=&quot;color: #e5c07b;&quot;&gt;psema&lt;/span&gt;&lt;span style=&quot;color: #abb2bf;&quot;&gt;-&amp;gt;&lt;/span&gt;&lt;span style=&quot;color: #e06c75;&quot;&gt;value&lt;/span&gt;&lt;span style=&quot;color: #c678dd;&quot;&gt;++&lt;/span&gt;&lt;span style=&quot;color: #abb2bf;&quot;&gt;;&lt;/span&gt;&lt;/div&gt;&lt;div&gt;&lt;span style=&quot;color: #abb2bf;&quot;&gt;&amp;nbsp; &amp;nbsp; &lt;/span&gt;&lt;span style=&quot;color: #61afef;&quot;&gt;ASSERT&lt;/span&gt;&lt;span style=&quot;color: #abb2bf;&quot;&gt;(&lt;/span&gt;&lt;span style=&quot;color: #e5c07b;&quot;&gt;psema&lt;/span&gt;&lt;span style=&quot;color: #abb2bf;&quot;&gt;-&amp;gt;&lt;/span&gt;&lt;span style=&quot;color: #e06c75;&quot;&gt;value&lt;/span&gt;&lt;span style=&quot;color: #abb2bf;&quot;&gt; &lt;/span&gt;&lt;span style=&quot;color: #c678dd;&quot;&gt;==&lt;/span&gt;&lt;span style=&quot;color: #abb2bf;&quot;&gt; &lt;/span&gt;&lt;span style=&quot;color: #d19a66;&quot;&gt;1&lt;/span&gt;&lt;span style=&quot;color: #abb2bf;&quot;&gt;);&lt;/span&gt;&lt;/div&gt;&lt;br&gt;&lt;div&gt;&lt;span style=&quot;color: #abb2bf;&quot;&gt;&amp;nbsp; &amp;nbsp; &lt;/span&gt;&lt;span style=&quot;color: #61afef;&quot;&gt;intr_set_status&lt;/span&gt;&lt;span style=&quot;color: #abb2bf;&quot;&gt;(old_status);&lt;/span&gt;&lt;/div&gt;&lt;div&gt;&lt;span style=&quot;color: #abb2bf;&quot;&gt;}&lt;/span&gt;&lt;/div&gt;&lt;/div&gt;" style="text;whiteSpace=wrap;html=1;" parent="1" vertex="1">
                    <mxGeometry x="1646.25" y="880" width="897.5" height="252" as="geometry"/>
                </mxCell>
                <mxCell id="19" value="&lt;div style=&quot;color: rgb(171, 178, 191); background-color: rgb(35, 39, 46); font-family: Consolas, &amp;quot;Courier New&amp;quot;, monospace; font-weight: normal; font-size: 14px; line-height: 19px;&quot;&gt;&lt;div&gt;&lt;span style=&quot;color: #c678dd;&quot;&gt;void&lt;/span&gt;&lt;span style=&quot;color: #abb2bf;&quot;&gt; &lt;/span&gt;&lt;span style=&quot;color: #61afef;&quot;&gt;thread_unblock&lt;/span&gt;&lt;span style=&quot;color: #abb2bf;&quot;&gt;(&lt;/span&gt;&lt;span style=&quot;color: #c678dd;&quot;&gt;struct&lt;/span&gt;&lt;span style=&quot;color: #e06c75;&quot;&gt; task_struct&lt;/span&gt;&lt;span style=&quot;color: #c678dd;&quot;&gt;*&lt;/span&gt;&lt;span style=&quot;color: #e06c75;&quot;&gt; pthread&lt;/span&gt;&lt;span style=&quot;color: #abb2bf;&quot;&gt;) {&lt;/span&gt;&lt;/div&gt;&lt;div&gt;&lt;span style=&quot;color: #abb2bf;&quot;&gt;&amp;nbsp; &amp;nbsp; &lt;/span&gt;&lt;span style=&quot;color: #c678dd;&quot;&gt;enum&lt;/span&gt;&lt;span style=&quot;color: #abb2bf;&quot;&gt; intr_status old_status &lt;/span&gt;&lt;span style=&quot;color: #c678dd;&quot;&gt;=&lt;/span&gt;&lt;span style=&quot;color: #abb2bf;&quot;&gt; &lt;/span&gt;&lt;span style=&quot;color: #61afef;&quot;&gt;intr_disable&lt;/span&gt;&lt;span style=&quot;color: #abb2bf;&quot;&gt;();&lt;/span&gt;&lt;/div&gt;&lt;div&gt;&lt;span style=&quot;color: #abb2bf;&quot;&gt;&amp;nbsp; &amp;nbsp; &lt;/span&gt;&lt;span style=&quot;color: #61afef;&quot;&gt;ASSERT&lt;/span&gt;&lt;span style=&quot;color: #abb2bf;&quot;&gt;(((&lt;/span&gt;&lt;span style=&quot;color: #e5c07b;&quot;&gt;pthread&lt;/span&gt;&lt;span style=&quot;color: #abb2bf;&quot;&gt;-&amp;gt;&lt;/span&gt;&lt;span style=&quot;color: #e06c75;&quot;&gt;status&lt;/span&gt;&lt;span style=&quot;color: #abb2bf;&quot;&gt; &lt;/span&gt;&lt;span style=&quot;color: #c678dd;&quot;&gt;==&lt;/span&gt;&lt;span style=&quot;color: #abb2bf;&quot;&gt; TASK_BLOCKED) &lt;/span&gt;&lt;span style=&quot;color: #56b6c2;&quot;&gt;||&lt;/span&gt;&lt;span style=&quot;color: #abb2bf;&quot;&gt; (&lt;/span&gt;&lt;span style=&quot;color: #e5c07b;&quot;&gt;pthread&lt;/span&gt;&lt;span style=&quot;color: #abb2bf;&quot;&gt;-&amp;gt;&lt;/span&gt;&lt;span style=&quot;color: #e06c75;&quot;&gt;status&lt;/span&gt;&lt;span style=&quot;color: #c678dd;&quot;&gt;==&lt;/span&gt;&lt;span style=&quot;color: #abb2bf;&quot;&gt; TASK_WAITING) &lt;/span&gt;&lt;span style=&quot;color: #56b6c2;&quot;&gt;||&lt;/span&gt;&lt;span style=&quot;color: #abb2bf;&quot;&gt; (&lt;/span&gt;&lt;span style=&quot;color: #e5c07b;&quot;&gt;pthread&lt;/span&gt;&lt;span style=&quot;color: #abb2bf;&quot;&gt;-&amp;gt;&lt;/span&gt;&lt;span style=&quot;color: #e06c75;&quot;&gt;status&lt;/span&gt;&lt;span style=&quot;color: #abb2bf;&quot;&gt; &lt;/span&gt;&lt;span style=&quot;color: #c678dd;&quot;&gt;==&lt;/span&gt;&lt;span style=&quot;color: #abb2bf;&quot;&gt; TASK_HANGING)));&lt;/span&gt;&lt;/div&gt;&lt;div&gt;&lt;span style=&quot;color: #abb2bf;&quot;&gt;&amp;nbsp; &amp;nbsp; &lt;/span&gt;&lt;span style=&quot;color: #c678dd;&quot;&gt;if&lt;/span&gt;&lt;span style=&quot;color: #abb2bf;&quot;&gt;(&lt;/span&gt;&lt;span style=&quot;color: #e5c07b;&quot;&gt;pthread&lt;/span&gt;&lt;span style=&quot;color: #abb2bf;&quot;&gt;-&amp;gt;&lt;/span&gt;&lt;span style=&quot;color: #e06c75;&quot;&gt;status&lt;/span&gt;&lt;span style=&quot;color: #abb2bf;&quot;&gt; &lt;/span&gt;&lt;span style=&quot;color: #c678dd;&quot;&gt;!=&lt;/span&gt;&lt;span style=&quot;color: #abb2bf;&quot;&gt; TASK_READY) {&lt;/span&gt;&lt;/div&gt;&lt;div&gt;&lt;span style=&quot;color: #abb2bf;&quot;&gt;&amp;nbsp; &amp;nbsp; &amp;nbsp; &amp;nbsp; &lt;/span&gt;&lt;span style=&quot;color: #61afef;&quot;&gt;ASSERT&lt;/span&gt;&lt;span style=&quot;color: #abb2bf;&quot;&gt;(&lt;/span&gt;&lt;span style=&quot;color: #56b6c2;&quot;&gt;!&lt;/span&gt;&lt;span style=&quot;color: #61afef;&quot;&gt;elem_find&lt;/span&gt;&lt;span style=&quot;color: #abb2bf;&quot;&gt;(&lt;/span&gt;&lt;span style=&quot;color: #c678dd;&quot;&gt;&amp;amp;&lt;/span&gt;&lt;span style=&quot;color: #abb2bf;&quot;&gt;thread_ready_list, &lt;/span&gt;&lt;span style=&quot;color: #c678dd;&quot;&gt;&amp;amp;&lt;/span&gt;&lt;span style=&quot;color: #e5c07b;&quot;&gt;pthread&lt;/span&gt;&lt;span style=&quot;color: #abb2bf;&quot;&gt;-&amp;gt;&lt;/span&gt;&lt;span style=&quot;color: #e06c75;&quot;&gt;general_tag&lt;/span&gt;&lt;span style=&quot;color: #abb2bf;&quot;&gt;));&lt;/span&gt;&lt;/div&gt;&lt;div&gt;&lt;span style=&quot;color: #abb2bf;&quot;&gt;&amp;nbsp; &amp;nbsp; &amp;nbsp; &amp;nbsp; &lt;/span&gt;&lt;span style=&quot;color: #c678dd;&quot;&gt;if&lt;/span&gt;&lt;span style=&quot;color: #abb2bf;&quot;&gt;(&lt;/span&gt;&lt;span style=&quot;color: #61afef;&quot;&gt;elem_find&lt;/span&gt;&lt;span style=&quot;color: #abb2bf;&quot;&gt;(&lt;/span&gt;&lt;span style=&quot;color: #c678dd;&quot;&gt;&amp;amp;&lt;/span&gt;&lt;span style=&quot;color: #abb2bf;&quot;&gt;thread_ready_list, &lt;/span&gt;&lt;span style=&quot;color: #c678dd;&quot;&gt;&amp;amp;&lt;/span&gt;&lt;span style=&quot;color: #e5c07b;&quot;&gt;pthread&lt;/span&gt;&lt;span style=&quot;color: #abb2bf;&quot;&gt;-&amp;gt;&lt;/span&gt;&lt;span style=&quot;color: #e06c75;&quot;&gt;general_tag&lt;/span&gt;&lt;span style=&quot;color: #abb2bf;&quot;&gt;)) {&lt;/span&gt;&lt;/div&gt;&lt;div&gt;&lt;span style=&quot;color: #abb2bf;&quot;&gt;&amp;nbsp; &amp;nbsp; &amp;nbsp; &amp;nbsp; &amp;nbsp; &amp;nbsp; &lt;/span&gt;&lt;span style=&quot;color: #61afef;&quot;&gt;PANIC&lt;/span&gt;&lt;span style=&quot;color: #abb2bf;&quot;&gt;(&lt;/span&gt;&lt;span style=&quot;color: #98c379;&quot;&gt;&quot;thread_unblock: blocked thread in ready_list&lt;/span&gt;&lt;span style=&quot;color: #56b6c2;&quot;&gt;\n&lt;/span&gt;&lt;span style=&quot;color: #98c379;&quot;&gt;&quot;&lt;/span&gt;&lt;span style=&quot;color: #abb2bf;&quot;&gt;);&lt;/span&gt;&lt;/div&gt;&lt;div&gt;&lt;span style=&quot;color: #abb2bf;&quot;&gt;&amp;nbsp; &amp;nbsp; &amp;nbsp; &amp;nbsp; }&lt;/span&gt;&lt;/div&gt;&lt;div&gt;&lt;span style=&quot;color: #abb2bf;&quot;&gt;&amp;nbsp; &amp;nbsp; &amp;nbsp; &amp;nbsp; &lt;/span&gt;&lt;span style=&quot;color: #61afef;&quot;&gt;list_push&lt;/span&gt;&lt;span style=&quot;color: #abb2bf;&quot;&gt;(&lt;/span&gt;&lt;span style=&quot;color: #c678dd;&quot;&gt;&amp;amp;&lt;/span&gt;&lt;span style=&quot;color: #abb2bf;&quot;&gt;thread_ready_list, &lt;/span&gt;&lt;span style=&quot;color: #c678dd;&quot;&gt;&amp;amp;&lt;/span&gt;&lt;span style=&quot;color: #e5c07b;&quot;&gt;pthread&lt;/span&gt;&lt;span style=&quot;color: #abb2bf;&quot;&gt;-&amp;gt;&lt;/span&gt;&lt;span style=&quot;color: #e06c75;&quot;&gt;general_tag&lt;/span&gt;&lt;span style=&quot;color: #abb2bf;&quot;&gt;);&lt;/span&gt;&lt;span style=&quot;color: #7f848e;&quot;&gt; &amp;nbsp;//pay attention: we use &quot;list_push&quot; to make this thread get quickly schedule.&lt;/span&gt;&lt;/div&gt;&lt;div&gt;&lt;span style=&quot;color: #abb2bf;&quot;&gt;&amp;nbsp; &amp;nbsp; &amp;nbsp; &amp;nbsp; &lt;/span&gt;&lt;span style=&quot;color: #e5c07b;&quot;&gt;pthread&lt;/span&gt;&lt;span style=&quot;color: #abb2bf;&quot;&gt;-&amp;gt;&lt;/span&gt;&lt;span style=&quot;color: #e06c75;&quot;&gt;status&lt;/span&gt;&lt;span style=&quot;color: #abb2bf;&quot;&gt; &lt;/span&gt;&lt;span style=&quot;color: #c678dd;&quot;&gt;=&lt;/span&gt;&lt;span style=&quot;color: #abb2bf;&quot;&gt; TASK_READY;&lt;/span&gt;&lt;/div&gt;&lt;div&gt;&lt;span style=&quot;color: #abb2bf;&quot;&gt;&amp;nbsp; &amp;nbsp; }&lt;/span&gt;&lt;/div&gt;&lt;div&gt;&lt;span style=&quot;color: #abb2bf;&quot;&gt;&amp;nbsp; &amp;nbsp; &lt;/span&gt;&lt;span style=&quot;color: #61afef;&quot;&gt;intr_set_status&lt;/span&gt;&lt;span style=&quot;color: #abb2bf;&quot;&gt;(old_status);&lt;/span&gt;&lt;/div&gt;&lt;div&gt;&lt;span style=&quot;color: #abb2bf;&quot;&gt;}&lt;/span&gt;&lt;/div&gt;&lt;/div&gt;" style="text;whiteSpace=wrap;html=1;" parent="1" vertex="1">
                    <mxGeometry x="1819" y="1190" width="552" height="290" as="geometry"/>
                </mxCell>
                <mxCell id="20" value="&lt;div style=&quot;color: rgb(171, 178, 191); background-color: rgb(35, 39, 46); font-family: Consolas, &amp;quot;Courier New&amp;quot;, monospace; font-weight: normal; font-size: 14px; line-height: 19px;&quot;&gt;&lt;div&gt;&lt;span style=&quot;color: #c678dd;&quot;&gt;void&lt;/span&gt;&lt;span style=&quot;color: #abb2bf;&quot;&gt; &lt;/span&gt;&lt;span style=&quot;color: #61afef;&quot;&gt;schedule&lt;/span&gt;&lt;span style=&quot;color: #abb2bf;&quot;&gt;() {&lt;/span&gt;&lt;/div&gt;&lt;div&gt;&lt;span style=&quot;color: #abb2bf;&quot;&gt;&amp;nbsp; &amp;nbsp; &lt;/span&gt;&lt;span style=&quot;color: #7f848e;&quot;&gt;//replace current thread&lt;/span&gt;&lt;/div&gt;&lt;div&gt;&lt;span style=&quot;color: #abb2bf;&quot;&gt;&amp;nbsp; &amp;nbsp; &lt;/span&gt;&lt;span style=&quot;color: #61afef;&quot;&gt;ASSERT&lt;/span&gt;&lt;span style=&quot;color: #abb2bf;&quot;&gt;(&lt;/span&gt;&lt;span style=&quot;color: #61afef;&quot;&gt;intr_get_status&lt;/span&gt;&lt;span style=&quot;color: #abb2bf;&quot;&gt;() &lt;/span&gt;&lt;span style=&quot;color: #c678dd;&quot;&gt;==&lt;/span&gt;&lt;span style=&quot;color: #abb2bf;&quot;&gt; INTR_OFF);&lt;/span&gt;&lt;/div&gt;&lt;br&gt;&lt;div&gt;&lt;span style=&quot;color: #abb2bf;&quot;&gt;&amp;nbsp; &amp;nbsp; &lt;/span&gt;&lt;span style=&quot;color: #c678dd;&quot;&gt;struct&lt;/span&gt;&lt;span style=&quot;color: #abb2bf;&quot;&gt; task_struct&lt;/span&gt;&lt;span style=&quot;color: #c678dd;&quot;&gt;*&lt;/span&gt;&lt;span style=&quot;color: #abb2bf;&quot;&gt; cur &lt;/span&gt;&lt;span style=&quot;color: #c678dd;&quot;&gt;=&lt;/span&gt;&lt;span style=&quot;color: #abb2bf;&quot;&gt; &lt;/span&gt;&lt;span style=&quot;color: #61afef;&quot;&gt;running_thread&lt;/span&gt;&lt;span style=&quot;color: #abb2bf;&quot;&gt;();&lt;/span&gt;&lt;/div&gt;&lt;div&gt;&lt;span style=&quot;color: #abb2bf;&quot;&gt;&amp;nbsp; &amp;nbsp; &lt;/span&gt;&lt;span style=&quot;color: #c678dd;&quot;&gt;if&lt;/span&gt;&lt;span style=&quot;color: #abb2bf;&quot;&gt;(&lt;/span&gt;&lt;span style=&quot;color: #e5c07b;&quot;&gt;cur&lt;/span&gt;&lt;span style=&quot;color: #abb2bf;&quot;&gt;-&amp;gt;&lt;/span&gt;&lt;span style=&quot;color: #e06c75;&quot;&gt;status&lt;/span&gt;&lt;span style=&quot;color: #abb2bf;&quot;&gt; &lt;/span&gt;&lt;span style=&quot;color: #c678dd;&quot;&gt;==&lt;/span&gt;&lt;span style=&quot;color: #abb2bf;&quot;&gt; TASK_RUNNING) {&lt;/span&gt;&lt;/div&gt;&lt;div&gt;&lt;span style=&quot;color: #abb2bf;&quot;&gt;&amp;nbsp; &amp;nbsp; &amp;nbsp; &amp;nbsp; &lt;/span&gt;&lt;span style=&quot;color: #61afef;&quot;&gt;ASSERT&lt;/span&gt;&lt;span style=&quot;color: #abb2bf;&quot;&gt;(&lt;/span&gt;&lt;span style=&quot;color: #56b6c2;&quot;&gt;!&lt;/span&gt;&lt;span style=&quot;color: #61afef;&quot;&gt;elem_find&lt;/span&gt;&lt;span style=&quot;color: #abb2bf;&quot;&gt;(&lt;/span&gt;&lt;span style=&quot;color: #c678dd;&quot;&gt;&amp;amp;&lt;/span&gt;&lt;span style=&quot;color: #abb2bf;&quot;&gt;thread_ready_list, &lt;/span&gt;&lt;span style=&quot;color: #c678dd;&quot;&gt;&amp;amp;&lt;/span&gt;&lt;span style=&quot;color: #e5c07b;&quot;&gt;cur&lt;/span&gt;&lt;span style=&quot;color: #abb2bf;&quot;&gt;-&amp;gt;&lt;/span&gt;&lt;span style=&quot;color: #e06c75;&quot;&gt;general_tag&lt;/span&gt;&lt;span style=&quot;color: #abb2bf;&quot;&gt;));&lt;/span&gt;&lt;/div&gt;&lt;div&gt;&lt;span style=&quot;color: #abb2bf;&quot;&gt;&amp;nbsp; &amp;nbsp; &amp;nbsp; &amp;nbsp; &lt;/span&gt;&lt;span style=&quot;color: #61afef;&quot;&gt;list_append&lt;/span&gt;&lt;span style=&quot;color: #abb2bf;&quot;&gt;(&lt;/span&gt;&lt;span style=&quot;color: #c678dd;&quot;&gt;&amp;amp;&lt;/span&gt;&lt;span style=&quot;color: #abb2bf;&quot;&gt;thread_ready_list, &lt;/span&gt;&lt;span style=&quot;color: #c678dd;&quot;&gt;&amp;amp;&lt;/span&gt;&lt;span style=&quot;color: #e5c07b;&quot;&gt;cur&lt;/span&gt;&lt;span style=&quot;color: #abb2bf;&quot;&gt;-&amp;gt;&lt;/span&gt;&lt;span style=&quot;color: #e06c75;&quot;&gt;general_tag&lt;/span&gt;&lt;span style=&quot;color: #abb2bf;&quot;&gt;);&lt;/span&gt;&lt;/div&gt;&lt;div&gt;&lt;span style=&quot;color: #abb2bf;&quot;&gt;&amp;nbsp; &amp;nbsp; &amp;nbsp; &amp;nbsp; &lt;/span&gt;&lt;span style=&quot;color: #e5c07b;&quot;&gt;cur&lt;/span&gt;&lt;span style=&quot;color: #abb2bf;&quot;&gt;-&amp;gt;&lt;/span&gt;&lt;span style=&quot;color: #e06c75;&quot;&gt;ticks&lt;/span&gt;&lt;span style=&quot;color: #abb2bf;&quot;&gt; &lt;/span&gt;&lt;span style=&quot;color: #c678dd;&quot;&gt;=&lt;/span&gt;&lt;span style=&quot;color: #abb2bf;&quot;&gt; &lt;/span&gt;&lt;span style=&quot;color: #e5c07b;&quot;&gt;cur&lt;/span&gt;&lt;span style=&quot;color: #abb2bf;&quot;&gt;-&amp;gt;&lt;/span&gt;&lt;span style=&quot;color: #e06c75;&quot;&gt;priority&lt;/span&gt;&lt;span style=&quot;color: #abb2bf;&quot;&gt;;&lt;/span&gt;&lt;/div&gt;&lt;div&gt;&lt;span style=&quot;color: #abb2bf;&quot;&gt;&amp;nbsp; &amp;nbsp; &amp;nbsp; &amp;nbsp; &lt;/span&gt;&lt;span style=&quot;color: #e5c07b;&quot;&gt;cur&lt;/span&gt;&lt;span style=&quot;color: #abb2bf;&quot;&gt;-&amp;gt;&lt;/span&gt;&lt;span style=&quot;color: #e06c75;&quot;&gt;status&lt;/span&gt;&lt;span style=&quot;color: #abb2bf;&quot;&gt; &lt;/span&gt;&lt;span style=&quot;color: #c678dd;&quot;&gt;=&lt;/span&gt;&lt;span style=&quot;color: #abb2bf;&quot;&gt; TASK_READY;&lt;/span&gt;&lt;/div&gt;&lt;div&gt;&lt;span style=&quot;color: #abb2bf;&quot;&gt;&amp;nbsp; &amp;nbsp; }&lt;/span&gt;&lt;/div&gt;&lt;div&gt;&lt;span style=&quot;color: #abb2bf;&quot;&gt;&amp;nbsp; &amp;nbsp; &lt;/span&gt;&lt;span style=&quot;color: #c678dd;&quot;&gt;else&lt;/span&gt;&lt;span style=&quot;color: #abb2bf;&quot;&gt; {&lt;/span&gt;&lt;/div&gt;&lt;div&gt;&lt;span style=&quot;color: #abb2bf;&quot;&gt;&amp;nbsp; &amp;nbsp; &amp;nbsp; &amp;nbsp; &lt;/span&gt;&lt;span style=&quot;color: #7f848e;&quot;&gt;//temporary empty&lt;/span&gt;&lt;/div&gt;&lt;div&gt;&lt;span style=&quot;color: #abb2bf;&quot;&gt;&amp;nbsp; &amp;nbsp; }&lt;/span&gt;&lt;/div&gt;&lt;div&gt;&lt;span style=&quot;color: #abb2bf;&quot;&gt;&amp;nbsp; &amp;nbsp; &lt;/span&gt;&lt;span style=&quot;color: #7f848e;&quot;&gt;//change new thread which is the first element in thread_ready_list.&lt;/span&gt;&lt;/div&gt;&lt;div&gt;&lt;span style=&quot;color: #abb2bf;&quot;&gt;&amp;nbsp; &amp;nbsp; &lt;/span&gt;&lt;span style=&quot;color: #61afef;&quot;&gt;ASSERT&lt;/span&gt;&lt;span style=&quot;color: #abb2bf;&quot;&gt;(&lt;/span&gt;&lt;span style=&quot;color: #56b6c2;&quot;&gt;!&lt;/span&gt;&lt;span style=&quot;color: #61afef;&quot;&gt;list_empty&lt;/span&gt;&lt;span style=&quot;color: #abb2bf;&quot;&gt;(&lt;/span&gt;&lt;span style=&quot;color: #c678dd;&quot;&gt;&amp;amp;&lt;/span&gt;&lt;span style=&quot;color: #abb2bf;&quot;&gt;thread_ready_list));&lt;/span&gt;&lt;/div&gt;&lt;div&gt;&lt;span style=&quot;color: #abb2bf;&quot;&gt;&amp;nbsp; &amp;nbsp; thread_tag &lt;/span&gt;&lt;span style=&quot;color: #c678dd;&quot;&gt;=&lt;/span&gt;&lt;span style=&quot;color: #abb2bf;&quot;&gt; &lt;/span&gt;&lt;span style=&quot;color: #d19a66;&quot;&gt;NULL&lt;/span&gt;&lt;span style=&quot;color: #abb2bf;&quot;&gt;;&lt;/span&gt;&lt;/div&gt;&lt;div&gt;&lt;span style=&quot;color: #abb2bf;&quot;&gt;&amp;nbsp; &amp;nbsp; thread_tag &lt;/span&gt;&lt;span style=&quot;color: #c678dd;&quot;&gt;=&lt;/span&gt;&lt;span style=&quot;color: #abb2bf;&quot;&gt; &lt;/span&gt;&lt;span style=&quot;color: #61afef;&quot;&gt;list_pop&lt;/span&gt;&lt;span style=&quot;color: #abb2bf;&quot;&gt;(&lt;/span&gt;&lt;span style=&quot;color: #c678dd;&quot;&gt;&amp;amp;&lt;/span&gt;&lt;span style=&quot;color: #abb2bf;&quot;&gt;thread_ready_list);&lt;/span&gt;&lt;/div&gt;&lt;div&gt;&lt;span style=&quot;color: #abb2bf;&quot;&gt;&amp;nbsp; &amp;nbsp; &lt;/span&gt;&lt;span style=&quot;color: #c678dd;&quot;&gt;struct&lt;/span&gt;&lt;span style=&quot;color: #abb2bf;&quot;&gt; task_struct&lt;/span&gt;&lt;span style=&quot;color: #c678dd;&quot;&gt;*&lt;/span&gt;&lt;span style=&quot;color: #abb2bf;&quot;&gt; next &lt;/span&gt;&lt;span style=&quot;color: #c678dd;&quot;&gt;=&lt;/span&gt;&lt;span style=&quot;color: #abb2bf;&quot;&gt; &lt;/span&gt;&lt;span style=&quot;color: #61afef;&quot;&gt;elem2entry&lt;/span&gt;&lt;span style=&quot;color: #abb2bf;&quot;&gt;(&lt;/span&gt;&lt;span style=&quot;color: #c678dd;&quot;&gt;struct&lt;/span&gt;&lt;span style=&quot;color: #abb2bf;&quot;&gt; task_struct, general_tag, thread_tag);&lt;/span&gt;&lt;span style=&quot;color: #7f848e;&quot;&gt; //general_tag is the name of member.&lt;/span&gt;&lt;/div&gt;&lt;div&gt;&lt;span style=&quot;color: #abb2bf;&quot;&gt;&amp;nbsp; &amp;nbsp; &lt;/span&gt;&lt;span style=&quot;color: #e5c07b;&quot;&gt;next&lt;/span&gt;&lt;span style=&quot;color: #abb2bf;&quot;&gt;-&amp;gt;&lt;/span&gt;&lt;span style=&quot;color: #e06c75;&quot;&gt;status&lt;/span&gt;&lt;span style=&quot;color: #abb2bf;&quot;&gt; &lt;/span&gt;&lt;span style=&quot;color: #c678dd;&quot;&gt;=&lt;/span&gt;&lt;span style=&quot;color: #abb2bf;&quot;&gt; TASK_RUNNING;&lt;/span&gt;&lt;/div&gt;&lt;div&gt;&lt;span style=&quot;color: #abb2bf;&quot;&gt;&amp;nbsp; &amp;nbsp; &lt;/span&gt;&lt;span style=&quot;color: #61afef;&quot;&gt;switch_to&lt;/span&gt;&lt;span style=&quot;color: #abb2bf;&quot;&gt;(cur, next);&lt;/span&gt;&lt;/div&gt;&lt;div&gt;&lt;span style=&quot;color: #abb2bf;&quot;&gt;}&lt;/span&gt;&lt;/div&gt;&lt;/div&gt;" style="text;whiteSpace=wrap;html=1;" parent="1" vertex="1">
                    <mxGeometry x="985" y="1430" width="560" height="450" as="geometry"/>
                </mxCell>
            </root>
        </mxGraphModel>
    </diagram>
</mxfile>